<?xml version="1.0" standalone="no"?>
<!DOCTYPE svg PUBLIC "-//W3C//DTD SVG 20010904//EN"
 "http://www.w3.org/TR/2001/REC-SVG-20010904/DTD/svg10.dtd">
<svg version="1.0" xmlns="http://www.w3.org/2000/svg"
 width="1116.000000pt" height="1116.000000pt" viewBox="0 0 1116.000000 1116.000000"
 preserveAspectRatio="xMidYMid meet">
<metadata>
Created by potrace 1.14, written by Peter Selinger 2001-2017
</metadata>
<g transform="translate(0.000000,1116.000000) scale(0.100000,-0.100000)"
fill="#000000" stroke="none">
<path d="M5556 11108 c3 -4 -2 -11 -11 -14 -13 -6 -14 -8 -3 -15 10 -7 9 -9
-3 -9 -9 0 -20 -7 -23 -16 -4 -10 -2 -13 7 -8 6 4 0 -4 -15 -19 -16 -14 -28
-31 -28 -37 0 -6 -6 -8 -12 -4 -9 5 -9 2 1 -9 12 -15 11 -17 -3 -17 -10 0 -14
-4 -11 -10 3 -5 -3 -15 -15 -22 -11 -7 -20 -16 -20 -21 0 -4 5 -5 11 -2 6 4 5
-2 -2 -13 -7 -12 -17 -18 -21 -16 -4 3 -8 0 -8 -5 0 -20 -3 -26 -19 -39 -13
-11 -13 -12 -1 -7 10 4 9 2 -2 -8 -10 -8 -18 -19 -18 -25 0 -5 -7 -12 -15 -16
-8 -3 -15 -13 -15 -21 0 -10 -5 -13 -12 -9 -9 5 -9 2 1 -9 12 -15 11 -17 -3
-17 -10 0 -14 -4 -11 -10 3 -5 1 -10 -6 -10 -7 0 -9 -3 -6 -7 4 -3 -1 -12 -11
-20 -11 -10 -12 -12 -2 -8 10 4 9 2 -2 -8 -10 -8 -18 -19 -18 -26 0 -6 -4 -11
-10 -11 -5 0 -6 -7 -3 -17 4 -11 3 -14 -5 -9 -7 4 -12 3 -12 -2 0 -5 -9 -19
-20 -32 -18 -21 -25 -40 -21 -62 0 -4 -7 -4 -16 -1 -11 4 -14 3 -9 -5 4 -7 2
-12 -4 -12 -6 0 -8 -4 -5 -10 3 -5 1 -10 -4 -10 -6 0 -10 -6 -9 -12 2 -7 -3
-12 -10 -10 -7 1 -12 -5 -10 -15 2 -11 -2 -17 -10 -15 -8 1 -11 -2 -6 -9 4 -7
0 -17 -8 -23 -8 -6 -15 -13 -16 -16 -3 -20 -15 -39 -22 -35 -5 3 -7 -3 -6 -12
2 -10 -9 -26 -23 -37 -14 -10 -18 -16 -9 -12 15 4 16 3 6 -14 -7 -10 -16 -16
-20 -14 -7 5 -12 -10 -9 -28 0 -5 -7 -8 -17 -9 -10 0 -12 -3 -4 -6 6 -2 12 -9
12 -14 0 -6 -3 -8 -7 -6 -10 6 -34 -19 -26 -27 4 -3 1 -6 -6 -6 -7 0 -10 -4
-6 -10 3 -5 -7 -16 -22 -25 -15 -9 -19 -14 -9 -10 15 4 17 3 8 -8 -7 -8 -8
-17 -4 -21 4 -4 0 -6 -8 -4 -8 2 -14 -3 -12 -10 1 -7 -5 -15 -13 -18 -8 -4
-15 -12 -15 -19 0 -7 -7 -15 -15 -19 -8 -3 -15 -9 -14 -13 4 -21 -2 -33 -13
-27 -6 4 -8 3 -4 -4 3 -6 0 -17 -8 -25 -8 -8 -12 -17 -9 -21 4 -3 2 -6 -4 -6
-6 0 -14 -11 -17 -25 -4 -16 -11 -23 -18 -19 -7 5 -9 2 -5 -9 3 -9 0 -18 -9
-21 -9 -3 -12 -10 -9 -16 3 -5 3 -10 -2 -10 -4 0 -14 -14 -21 -30 -8 -17 -18
-27 -24 -24 -6 4 -8 2 -5 -3 4 -6 0 -16 -9 -23 -8 -7 -13 -19 -10 -27 3 -7 -1
-13 -10 -13 -8 0 -12 -4 -9 -10 3 -5 -3 -15 -15 -22 -11 -7 -20 -16 -20 -21 0
-4 5 -5 11 -2 6 4 5 -2 -2 -13 -7 -12 -17 -18 -21 -16 -4 3 -9 0 -9 -5 -1 -6
-2 -17 -3 -23 -1 -7 -8 -12 -16 -10 -11 3 -11 0 0 -15 8 -10 11 -15 6 -11 -11
9 -29 -10 -47 -49 -7 -18 -17 -33 -20 -33 -4 0 -9 -9 -12 -21 -4 -13 -10 -18
-18 -13 -8 4 -10 3 -5 -4 8 -14 -18 -55 -28 -45 -4 4 -4 0 0 -10 3 -10 1 -17
-5 -17 -6 0 -10 -4 -9 -9 2 -5 -6 -17 -17 -26 -11 -9 -14 -13 -7 -10 11 6 11
3 1 -13 -7 -12 -17 -18 -21 -16 -5 3 -8 2 -7 -3 4 -22 -2 -34 -13 -27 -8 5 -7
0 2 -11 8 -10 11 -16 5 -13 -5 3 -16 0 -23 -8 -7 -8 -9 -14 -5 -14 4 0 -1 -7
-11 -15 -11 -8 -17 -18 -13 -21 8 -9 -16 -33 -27 -26 -5 3 -6 -1 -1 -8 5 -8 2
-18 -9 -26 -10 -7 -17 -15 -17 -18 1 -15 -12 -35 -20 -31 -4 3 -6 -3 -4 -14 2
-13 -3 -22 -16 -26 -10 -4 -19 -11 -19 -16 0 -6 5 -7 11 -4 6 4 5 -2 -2 -13
-7 -12 -17 -18 -21 -16 -4 3 -9 0 -9 -5 -1 -6 -2 -16 -3 -21 0 -6 -8 -15 -16
-20 -8 -5 -11 -10 -6 -10 4 0 -2 -9 -15 -21 -13 -11 -18 -18 -11 -14 16 8 15
-3 -2 -20 -7 -8 -17 -11 -21 -7 -5 4 -5 2 -2 -4 4 -7 -3 -23 -14 -38 -11 -14
-18 -26 -14 -26 3 0 -6 -11 -20 -25 -28 -29 -34 -45 -8 -24 15 13 15 12 3 -8
-8 -12 -18 -19 -22 -17 -4 3 -8 0 -8 -7 0 -6 -8 -18 -17 -26 -11 -8 -12 -11
-3 -7 13 7 13 6 0 -12 -8 -10 -21 -25 -27 -32 -12 -13 -17 -27 -14 -44 0 -4
-7 -4 -16 -1 -12 5 -14 3 -8 -6 4 -7 3 -16 -3 -20 -6 -3 -12 -13 -14 -21 -2
-8 -8 -19 -15 -25 -7 -5 -13 -16 -15 -24 -2 -8 -14 -26 -28 -39 -14 -14 -17
-19 -7 -12 15 11 17 10 11 -4 -3 -9 -12 -16 -20 -16 -8 0 -13 -3 -12 -7 3 -15
-14 -43 -23 -37 -5 3 -9 2 -8 -3 4 -22 -2 -43 -11 -38 -5 3 -11 1 -11 -4 -1
-6 -3 -15 -4 -21 -1 -5 -3 -14 -4 -20 0 -5 -8 -10 -17 -10 -8 0 -13 -4 -10 -9
3 -4 -3 -19 -14 -31 -11 -12 -17 -27 -14 -31 3 -5 1 -9 -5 -9 -5 0 -13 -9 -16
-20 -4 -11 -11 -17 -17 -14 -6 4 -8 2 -4 -4 3 -6 1 -14 -5 -17 -5 -4 -8 -14
-5 -22 3 -8 2 -12 -3 -9 -4 3 -14 -7 -22 -22 -7 -15 -22 -35 -34 -45 -11 -10
-13 -15 -5 -11 13 7 13 6 0 -12 -8 -10 -17 -21 -20 -24 -3 -3 -12 -14 -20 -24
-13 -18 -13 -19 0 -12 9 4 8 1 -2 -7 -10 -8 -18 -20 -18 -26 0 -7 -5 -9 -12
-5 -8 5 -7 0 2 -11 9 -11 10 -16 3 -11 -8 4 -13 2 -13 -4 0 -6 -5 -8 -12 -4
-7 5 -8 3 -4 -5 5 -7 0 -18 -10 -26 -11 -7 -16 -17 -12 -20 4 -4 -3 -16 -15
-25 -29 -24 -15 -37 20 -20 16 7 32 13 37 11 5 -1 6 5 3 14 -6 14 10 21 36 16
5 -1 6 2 3 7 -3 5 6 14 19 20 14 7 25 16 25 22 0 6 5 8 10 5 6 -3 10 -1 10 5
0 6 4 9 8 6 5 -3 14 4 22 14 8 10 17 17 22 14 4 -3 8 0 8 7 0 7 3 10 6 6 9 -8
33 16 27 27 -3 5 0 7 7 4 8 -2 23 4 34 14 59 53 59 53 52 38 -4 -8 2 -4 13 9
12 13 21 19 21 15 0 -5 10 2 21 16 11 14 17 18 13 10 -7 -13 -5 -13 9 -1 9 7
14 17 11 22 -3 5 2 6 10 3 9 -4 16 -1 16 6 0 7 8 10 19 7 14 -3 18 -1 14 9 -3
9 1 14 12 14 9 0 13 5 10 10 -3 6 3 10 13 10 21 0 46 23 36 33 -3 3 4 3 17 0
12 -3 20 -2 17 3 -7 11 17 35 26 27 3 -4 6 0 6 7 0 7 3 11 6 7 3 -3 14 3 25
14 11 11 24 17 29 14 5 -3 12 0 16 6 5 8 3 9 -6 4 -9 -6 -11 -4 -6 4 5 7 15
10 23 7 8 -3 12 -2 9 3 -8 12 42 44 55 36 5 -4 8 -1 7 7 -2 7 3 12 10 10 6 -1
12 6 12 15 0 15 2 16 10 3 5 -8 10 -10 10 -4 0 5 7 19 16 30 8 10 13 13 9 7
-3 -7 -1 -13 4 -13 10 0 15 13 12 32 0 4 8 5 19 3 12 -2 24 4 31 16 6 12 17
18 25 15 8 -3 13 -2 10 3 -3 5 2 15 11 22 14 12 16 12 9 -1 -4 -8 2 -4 13 9
12 13 21 20 21 15 0 -4 7 1 16 12 8 10 12 13 8 5 -5 -9 -3 -12 4 -7 7 4 12 14
12 22 0 8 4 13 9 10 12 -8 72 39 63 50 -4 4 2 2 12 -6 13 -10 17 -10 12 -2 -4
7 -2 12 4 12 6 0 8 4 5 10 -4 6 1 7 11 3 12 -4 15 -3 10 5 -5 8 1 12 15 12 12
0 19 3 16 7 -10 10 31 35 45 27 6 -4 8 -3 5 3 -4 6 0 14 9 17 9 3 12 11 8 18
-5 8 -1 8 12 -2 10 -8 16 -11 12 -6 -9 11 16 36 36 36 8 0 18 5 22 12 5 7 3 8
-6 3 -9 -5 -11 -4 -6 4 4 6 12 9 17 6 5 -4 21 7 36 22 14 15 23 22 19 16 -5
-9 -2 -11 8 -7 9 3 14 10 11 14 -3 5 5 12 17 16 13 3 31 14 40 23 32 30 48 42
48 34 0 -4 6 2 14 13 8 10 19 19 25 19 5 0 17 9 26 20 9 11 14 13 10 5 -4 -8
2 -4 13 9 11 13 24 21 31 17 10 -7 16 7 12 28 -1 5 6 3 15 -5 10 -8 15 -9 11
-3 -4 7 3 14 18 18 14 4 23 10 20 15 -6 11 23 23 36 15 5 -3 9 -2 8 3 -3 20 2
34 11 28 6 -3 10 -1 10 6 0 7 3 9 7 6 3 -4 12 1 20 11 8 9 11 11 7 3 -5 -9 -3
-12 4 -7 7 4 12 14 12 23 0 9 3 13 7 10 3 -4 12 1 20 11 9 10 12 11 7 2 -8
-16 28 11 54 40 12 13 13 13 7 0 -4 -8 3 -4 14 9 12 13 21 19 21 15 0 -5 7 0
15 10 8 11 15 16 15 12 0 -4 11 4 23 18 13 14 27 23 31 19 3 -4 13 2 21 13 8
10 15 15 15 10 0 -5 11 3 24 17 13 14 27 23 30 20 3 -4 6 -1 6 5 0 6 9 14 20
17 11 4 18 10 15 15 -3 5 4 7 15 5 12 -2 20 1 20 10 0 8 5 17 12 21 7 5 8 2 3
-7 -4 -8 2 -4 15 9 12 13 28 21 36 18 7 -3 11 0 8 7 -2 7 5 18 17 25 17 11 20
11 14 0 -4 -7 2 -2 14 12 11 14 24 25 30 25 6 0 17 9 26 20 9 11 14 13 10 5
-4 -8 2 -4 13 9 11 13 24 21 31 17 10 -7 16 7 12 28 -1 5 6 3 15 -5 12 -9 15
-9 10 -1 -7 11 6 17 29 12 5 -1 7 2 3 6 -8 7 19 31 35 32 5 0 17 11 28 23 10
12 19 18 19 13 0 -5 4 -4 8 1 4 6 23 22 42 35 19 13 41 31 48 40 8 8 11 9 7 3
-4 -9 -1 -11 9 -7 9 3 13 10 10 15 -5 9 11 13 31 9 6 -1 7 1 3 5 -12 12 24 43
47 40 16 -1 22 2 18 11 -3 8 2 14 11 14 9 0 16 4 16 9 0 5 9 13 20 16 23 7 23
32 0 55 -13 12 -13 13 -1 5 10 -7 8 -1 -4 17 -11 15 -24 28 -28 28 -5 0 -5 5
-2 10 3 6 -1 13 -9 16 -9 3 -16 15 -16 26 0 10 -4 16 -10 13 -5 -3 -10 3 -10
15 0 12 -4 18 -10 15 -5 -3 -10 3 -10 14 0 11 -10 27 -22 35 -15 11 -18 16 -8
16 11 1 11 3 -3 11 -9 6 -15 14 -12 20 4 5 2 9 -3 9 -5 0 -17 18 -28 40 -10
22 -25 40 -32 40 -7 0 -11 4 -7 9 3 5 0 15 -7 23 -7 7 -20 22 -28 32 -13 18
-13 19 0 12 8 -4 6 1 -5 11 -11 10 -21 25 -23 33 -2 7 -13 22 -24 32 -13 11
-16 18 -8 18 7 0 3 9 -10 20 -13 11 -19 20 -15 20 5 0 0 7 -11 16 -10 8 -12
13 -4 9 12 -5 12 -4 -1 7 -9 7 -14 19 -11 26 2 7 -2 11 -10 10 -7 -2 -12 5
-12 14 1 10 -7 20 -17 23 -11 4 -19 14 -19 23 0 8 -10 27 -22 40 -13 14 -17
22 -11 18 9 -5 11 -2 7 8 -3 9 -10 14 -16 13 -6 -1 -12 7 -14 18 -1 11 -13 28
-25 37 -11 10 -16 18 -9 18 7 0 4 8 -8 19 -12 10 -19 21 -15 25 3 3 1 6 -6 6
-7 0 -10 4 -7 8 3 5 -4 14 -14 22 -10 8 -17 17 -14 22 3 4 -1 11 -10 14 -8 3
-12 12 -9 20 3 8 0 14 -7 14 -6 0 -8 5 -5 10 3 6 -1 10 -10 10 -9 0 -14 4 -11
9 3 5 -6 21 -19 35 -14 15 -25 34 -25 42 0 8 -11 26 -25 39 -13 14 -20 25 -14
25 5 0 4 6 -3 14 -7 8 -17 11 -23 8 -5 -3 -4 2 4 12 8 9 10 16 5 14 -5 -2 -10
1 -11 5 -1 4 -9 15 -18 23 -8 9 -12 20 -9 26 4 6 2 8 -3 5 -6 -4 -13 1 -15 11
-3 10 -12 19 -21 19 -9 0 -14 -4 -11 -9z"/>
<path d="M6511 9616 c0 -11 -4 -16 -8 -13 -3 4 -18 -3 -32 -15 -14 -13 -21
-16 -16 -8 6 9 2 8 -7 -2 -9 -11 -21 -20 -25 -21 -4 -1 -7 -5 -5 -9 1 -5 -5
-8 -14 -8 -9 0 -12 -5 -8 -12 5 -8 0 -7 -11 2 -11 9 -16 10 -11 3 4 -7 3 -13
-3 -13 -5 0 -22 -11 -37 -25 -15 -14 -33 -25 -40 -25 -8 0 -14 -5 -14 -11 0
-5 -4 -7 -10 -4 -5 3 -10 -1 -10 -9 0 -9 -4 -17 -10 -17 -5 -1 -14 -2 -18 -3
-13 -2 -42 -33 -36 -38 2 -3 -7 -4 -21 -2 -20 2 -25 -1 -21 -12 4 -9 -1 -14
-15 -14 -11 0 -18 -4 -14 -9 3 -5 -5 -13 -17 -16 -13 -4 -31 -17 -41 -29 -10
-11 -16 -14 -12 -6 4 10 2 9 -8 -2 -8 -10 -17 -15 -20 -11 -4 3 -7 -1 -7 -11
0 -9 -4 -14 -10 -11 -5 3 -17 -3 -27 -15 -10 -11 -26 -20 -36 -20 -13 0 -17
-5 -14 -14 4 -11 0 -13 -15 -11 -11 3 -18 2 -14 -2 9 -9 -32 -35 -44 -28 -6 4
-7 -1 -3 -11 4 -11 3 -15 -5 -10 -6 3 -15 -2 -21 -11 -6 -10 -11 -13 -11 -8 0
6 -4 4 -9 -3 -4 -7 -15 -14 -23 -16 -8 -1 -27 -14 -42 -29 -15 -15 -33 -24
-39 -21 -7 4 -9 4 -5 -1 4 -4 -21 -27 -55 -51 -34 -23 -67 -47 -74 -53 -7 -6
-20 -11 -29 -11 -11 0 -14 -5 -10 -17 4 -10 4 -14 0 -11 -4 4 -18 -1 -32 -12
-13 -11 -28 -17 -33 -14 -5 3 -9 0 -9 -5 0 -6 -8 -11 -17 -11 -14 0 -15 -2 -5
-9 10 -6 6 -10 -14 -15 -32 -8 -90 -55 -86 -68 1 -5 -2 -7 -7 -4 -13 8 -42 -4
-35 -15 3 -5 0 -9 -7 -9 -6 0 -18 -8 -26 -17 -9 -12 -12 -13 -8 -3 4 8 -3 4
-15 -10 -12 -14 -19 -18 -15 -10 4 10 1 9 -8 -2 -8 -10 -19 -18 -26 -18 -6 0
-11 -7 -11 -15 0 -9 -6 -12 -17 -8 -11 4 -14 3 -9 -5 5 -8 1 -10 -10 -5 -14 5
-16 3 -11 -11 4 -9 3 -15 -2 -11 -5 3 -16 -2 -25 -11 -9 -8 -20 -12 -26 -9 -5
3 -10 -1 -10 -10 0 -11 -5 -15 -15 -12 -8 4 -17 1 -21 -5 -5 -7 -2 -8 7 -4 8
4 5 0 -5 -8 -11 -9 -26 -16 -34 -16 -7 0 -11 -4 -8 -9 6 -8 -30 -25 -47 -22
-5 1 -6 -3 -3 -8 7 -11 -90 -75 -103 -67 -5 3 -8 -2 -7 -12 0 -9 -5 -16 -11
-14 -7 1 -13 -3 -13 -10 0 -6 -3 -9 -6 -5 -3 3 -16 -5 -29 -18 -12 -14 -25
-22 -28 -18 -4 3 -7 1 -7 -5 0 -7 -3 -11 -8 -10 -7 3 -25 -10 -64 -47 -13 -12
-18 -14 -14 -5 4 8 -2 5 -13 -8 -12 -14 -25 -20 -32 -16 -8 5 -10 2 -6 -8 4
-12 0 -15 -16 -11 -18 4 -19 3 -7 -6 13 -9 13 -11 -2 -11 -10 0 -18 -5 -18
-10 0 -6 -3 -9 -7 -9 -20 3 -34 -2 -28 -11 3 -5 -1 -10 -9 -10 -9 0 -16 -5
-16 -10 0 -6 -4 -9 -9 -8 -5 2 -17 -6 -26 -17 -9 -11 -14 -13 -10 -5 4 10 2 9
-8 -2 -8 -10 -17 -15 -20 -11 -4 3 -7 1 -7 -5 0 -6 -12 -17 -27 -25 -16 -7
-27 -18 -26 -25 2 -6 -4 -9 -12 -6 -8 4 -17 -1 -21 -10 -3 -9 -10 -14 -14 -11
-5 3 -15 -4 -23 -15 -7 -11 -17 -17 -20 -13 -4 3 -7 1 -7 -6 0 -7 -4 -10 -9
-6 -5 3 -16 -4 -24 -15 -8 -12 -19 -20 -24 -18 -5 2 -21 -9 -37 -25 -15 -15
-32 -25 -37 -22 -5 4 -9 -1 -9 -9 0 -8 -5 -18 -12 -22 -7 -4 -8 -3 -4 4 5 8 2
10 -8 6 -9 -3 -13 -10 -10 -15 3 -5 -2 -9 -10 -9 -9 0 -16 -5 -16 -11 0 -5 -4
-7 -10 -4 -6 3 -10 2 -10 -4 0 -5 -18 -20 -40 -32 -22 -12 -36 -27 -33 -33 3
-6 2 -8 -2 -3 -5 4 -17 -1 -28 -10 -15 -13 -18 -14 -13 -3 4 8 -1 4 -12 -9
-12 -15 -24 -21 -32 -16 -8 5 -11 4 -6 -3 7 -11 -32 -38 -47 -34 -5 1 -6 -2
-2 -8 3 -5 1 -10 -4 -10 -6 0 -20 -9 -31 -20 -11 -11 -20 -17 -20 -13 0 4 -14
-6 -32 -23 -18 -16 -26 -20 -18 -9 14 20 14 20 -7 1 -13 -10 -20 -23 -16 -29
3 -6 1 -7 -5 -3 -6 3 -21 -4 -33 -16 -12 -13 -19 -16 -15 -8 5 9 2 9 -7 -2 -8
-10 -17 -15 -20 -11 -4 3 -7 -1 -7 -11 0 -9 -4 -15 -10 -11 -5 3 -18 -2 -28
-12 -10 -10 -26 -25 -37 -33 -17 -13 -18 -13 -11 0 5 8 -3 2 -18 -15 -14 -16
-25 -26 -26 -22 0 5 -6 2 -14 -5 -7 -7 -24 -20 -36 -28 -12 -8 -29 -21 -36
-28 -12 -11 -14 -11 -15 0 0 7 -4 3 -10 -10 -5 -13 -13 -21 -18 -18 -5 3 -12
-1 -15 -10 -3 -8 -10 -13 -15 -10 -5 3 -11 -1 -15 -9 -3 -8 -13 -15 -21 -15
-9 0 -14 -4 -11 -9 3 -5 -3 -11 -14 -14 -11 -3 -24 -6 -28 -7 -4 -2 -13 -11
-20 -21 -7 -11 -19 -19 -25 -19 -7 0 -19 -9 -27 -19 -7 -11 -18 -17 -24 -14
-6 4 -4 -2 4 -12 9 -11 10 -16 3 -11 -8 4 -13 2 -13 -4 0 -6 -5 -8 -12 -4 -6
4 -8 3 -4 -4 3 -6 2 -13 -4 -17 -6 -4 -7 -11 -4 -17 5 -8 1 -9 -11 -4 -14 5
-15 4 -7 -7 8 -10 6 -16 -9 -25 -10 -7 -19 -19 -19 -27 0 -8 -6 -15 -12 -15
-9 0 -8 -4 2 -10 13 -8 13 -10 -2 -10 -10 0 -22 -14 -29 -35 -7 -19 -17 -35
-21 -35 -4 0 -8 -6 -8 -14 0 -8 -5 -18 -12 -22 -7 -5 -8 -3 -3 6 5 9 4 11 -4
6 -9 -6 -9 -11 1 -24 7 -9 9 -13 3 -10 -12 7 -37 -17 -28 -26 4 -3 1 -6 -6 -6
-7 0 -9 -4 -6 -10 3 -5 1 -10 -4 -10 -6 0 -11 -7 -11 -15 0 -8 -5 -15 -11 -15
-6 0 -8 -7 -5 -16 3 -8 2 -13 -3 -10 -5 3 -15 -2 -22 -11 -12 -14 -12 -16 1
-9 9 4 8 2 -2 -7 -10 -8 -15 -17 -11 -20 3 -4 1 -7 -6 -7 -7 0 -9 -5 -5 -12 5
-7 2 -9 -9 -5 -11 4 -14 2 -11 -7 3 -7 -2 -20 -10 -29 -8 -8 -12 -17 -9 -21 4
-3 1 -6 -6 -6 -7 0 -10 -4 -7 -9 3 -5 -1 -12 -10 -15 -9 -4 -14 -9 -11 -12 3
-4 1 -12 -6 -20 -36 -40 -38 -44 -25 -45 7 0 3 -5 -10 -11 -14 -7 -21 -17 -17
-26 3 -9 0 -12 -9 -9 -10 4 -13 1 -10 -8 3 -7 -4 -23 -15 -34 -12 -12 -21 -24
-21 -28 0 -5 -8 -17 -17 -28 -10 -11 -18 -22 -18 -25 -1 -3 -9 -21 -20 -40
-11 -19 -18 -38 -17 -42 2 -7 -12 -12 -29 -10 -3 1 -5 -9 -4 -21 1 -12 -6 -28
-17 -35 -10 -7 -18 -22 -18 -33 0 -11 -4 -17 -10 -14 -5 3 -10 -1 -10 -9 0 -9
-5 -16 -11 -16 -5 0 -7 -4 -4 -10 3 -5 1 -10 -5 -10 -6 0 -9 -4 -5 -9 3 -5 -4
-16 -15 -24 -12 -8 -22 -24 -23 -36 -1 -11 -9 -24 -19 -27 -10 -3 -18 -10 -18
-15 0 -6 6 -7 12 -4 7 4 0 -6 -17 -20 -16 -15 -23 -24 -16 -19 9 4 6 -5 -7
-23 -12 -17 -22 -36 -22 -43 0 -6 -4 -9 -8 -6 -5 3 -15 -10 -22 -29 -7 -19
-20 -37 -27 -40 -8 -2 -11 -9 -8 -15 3 -5 -5 -21 -19 -35 -28 -28 -33 -40 -13
-30 6 4 3 -1 -8 -10 -11 -9 -20 -19 -21 -23 -2 -19 -17 -41 -25 -37 -4 3 -6
-3 -4 -14 3 -14 -1 -18 -11 -14 -8 3 -14 2 -13 -3 4 -22 -2 -35 -13 -28 -7 4
-8 3 -4 -5 4 -6 0 -18 -8 -27 -9 -9 -13 -20 -10 -26 4 -7 2 -8 -4 -4 -11 6
-16 -6 -13 -26 0 -5 -3 -8 -8 -8 -5 0 -13 -9 -16 -20 -4 -11 -11 -17 -17 -14
-6 4 -8 -1 -3 -15 4 -15 3 -21 -7 -19 -8 2 -12 -4 -10 -15 2 -10 -3 -16 -10
-15 -8 2 -13 -6 -12 -19 1 -15 -3 -20 -14 -15 -11 4 -14 1 -10 -10 4 -9 -4
-26 -18 -41 -13 -14 -24 -31 -24 -37 0 -5 -5 -10 -11 -10 -5 0 -7 -4 -4 -10 3
-5 1 -10 -5 -10 -6 0 -8 -4 -5 -10 3 -5 2 -10 -3 -10 -5 0 -15 -12 -23 -27 -8
-16 -18 -31 -24 -35 -5 -4 -11 -12 -11 -18 -1 -5 -2 -15 -3 -21 0 -5 -6 -7
-11 -4 -6 3 -10 -3 -10 -15 0 -12 -5 -18 -10 -15 -6 3 -10 -3 -10 -14 0 -12
-4 -21 -10 -21 -5 0 -9 -3 -8 -7 3 -15 -14 -43 -23 -37 -5 3 -9 2 -8 -3 4 -22
-2 -34 -13 -27 -7 4 -10 3 -5 -1 4 -5 -1 -17 -10 -28 -13 -15 -14 -19 -3 -13
9 4 8 2 -2 -7 -10 -8 -18 -20 -18 -26 0 -7 -5 -9 -12 -5 -8 5 -7 0 2 -11 10
-13 11 -16 2 -11 -9 5 -15 1 -19 -13 -3 -12 -9 -21 -14 -21 -5 0 -9 -7 -9 -15
0 -7 -8 -19 -17 -24 -10 -6 -14 -11 -10 -11 5 0 -1 -13 -12 -29 -12 -16 -21
-34 -21 -40 0 -6 -5 -11 -11 -11 -5 0 -8 -4 -5 -9 3 -5 -1 -12 -10 -15 -8 -3
-12 -10 -9 -16 3 -5 2 -10 -3 -10 -6 0 -13 -11 -16 -25 -4 -14 -13 -25 -21
-25 -8 0 -14 -3 -14 -8 4 -21 -2 -32 -13 -26 -8 5 -7 0 2 -11 9 -11 10 -16 3
-11 -8 4 -13 2 -13 -4 0 -6 -4 -8 -10 -5 -5 3 -7 0 -4 -8 3 -8 0 -18 -5 -22
-6 -3 -8 -11 -5 -17 4 -6 3 -9 -2 -6 -5 3 -15 0 -22 -8 -7 -8 -10 -14 -6 -14
3 0 1 -6 -5 -13 -6 -8 -7 -18 -3 -22 4 -5 1 -5 -5 -1 -9 5 -13 0 -13 -16 0
-19 -2 -20 -11 -8 -9 12 -10 11 -6 -5 4 -22 -16 -49 -28 -37 -4 4 -6 3 -5 -3
5 -23 -1 -36 -13 -29 -6 4 -9 3 -4 -1 4 -5 -1 -17 -10 -28 -13 -15 -14 -19 -3
-13 8 4 7 1 -4 -8 -10 -8 -15 -19 -11 -25 6 -10 -8 -16 -29 -12 -5 1 -3 -6 4
-16 8 -10 10 -15 6 -11 -7 6 -46 -40 -51 -62 -6 -23 -19 -39 -26 -34 -8 5 -13
-12 -12 -43 1 -7 -3 -10 -8 -7 -5 3 -9 -2 -9 -11 0 -9 -4 -13 -10 -10 -5 3
-10 -3 -10 -14 0 -12 -4 -21 -10 -21 -5 0 -10 -6 -10 -14 0 -8 -5 -18 -12 -22
-7 -5 -8 -3 -3 6 5 8 4 11 -3 6 -6 -3 -9 -16 -7 -27 3 -15 0 -19 -10 -15 -8 3
-14 2 -13 -2 1 -4 -3 -17 -10 -29 -7 -13 -10 -23 -7 -23 4 0 -1 -7 -9 -16 -9
-8 -13 -20 -10 -26 4 -6 3 -9 -2 -6 -5 3 -15 0 -22 -8 -7 -8 -10 -14 -6 -14 3
0 1 -6 -5 -13 -6 -8 -7 -18 -3 -22 4 -5 2 -6 -3 -2 -6 3 -17 -3 -24 -15 -7
-11 -8 -17 -2 -13 6 3 11 4 11 1 0 -3 -12 -13 -27 -21 -16 -9 -20 -14 -11 -11
15 4 16 2 6 -14 -7 -10 -17 -18 -22 -17 -6 1 -10 -6 -8 -15 2 -10 -2 -18 -8
-18 -6 0 -8 -5 -5 -10 3 -5 -1 -10 -9 -10 -10 0 -13 -6 -10 -15 4 -8 2 -15 -3
-15 -9 0 -44 -53 -44 -67 0 -5 -7 -11 -14 -16 -8 -4 -11 -15 -8 -24 4 -9 2
-14 -3 -11 -10 7 -27 -11 -32 -32 -2 -8 -8 -18 -14 -21 -5 -3 -10 -10 -10 -15
0 -5 -4 -8 -9 -7 -4 2 -6 -3 -3 -10 2 -7 -9 -27 -25 -45 -19 -21 -28 -38 -24
-49 4 -11 3 -14 -5 -9 -7 4 -12 1 -12 -9 0 -8 -7 -18 -16 -22 -8 -3 -13 -11
-10 -18 3 -8 -2 -16 -11 -19 -9 -4 -13 -9 -10 -12 3 -3 -3 -14 -14 -25 -10
-10 -19 -26 -19 -34 0 -8 -4 -15 -10 -15 -5 0 -10 -7 -10 -15 0 -8 -5 -15 -10
-15 -6 0 -9 -6 -8 -12 2 -7 -3 -12 -10 -10 -8 1 -11 -2 -8 -7 4 -5 0 -16 -8
-24 -8 -8 -12 -17 -9 -21 3 -3 -4 -15 -17 -26 -13 -11 -20 -20 -16 -20 4 0 -2
-10 -14 -22 -11 -12 -20 -30 -20 -40 0 -10 -3 -17 -7 -17 -20 3 -26 -2 -13
-11 13 -8 12 -10 -2 -10 -11 0 -18 -8 -18 -20 0 -11 -4 -20 -8 -20 -5 0 -14
-12 -21 -27 -7 -15 -21 -33 -31 -40 -11 -8 -17 -19 -14 -27 3 -7 -8 -25 -23
-41 -15 -16 -22 -25 -16 -21 9 5 11 2 7 -8 -3 -9 -12 -16 -20 -16 -7 0 -11 -6
-8 -14 3 -8 -4 -24 -15 -35 -12 -12 -21 -25 -21 -30 0 -5 -7 -11 -15 -15 -8
-3 -15 -15 -15 -26 0 -11 -4 -20 -10 -20 -5 0 -10 -7 -10 -15 0 -8 -5 -15 -11
-15 -5 0 -7 -5 -3 -11 4 -7 10 -7 16 -1 7 7 18 6 34 -5 15 -9 24 -11 24 -4 0
6 5 11 11 11 5 0 7 -4 4 -10 -4 -7 3 -7 20 0 17 7 24 7 20 0 -3 -6 -1 -10 4
-10 6 0 11 8 12 18 0 14 2 14 9 -3 6 -13 9 -15 9 -5 1 13 2 13 11 0 8 -12 10
-12 10 -1 0 11 3 11 17 0 11 -10 14 -10 9 -1 -4 6 -3 12 3 12 5 0 12 -6 14
-12 4 -10 6 -10 6 0 1 10 6 10 21 2 15 -8 20 -8 20 2 0 9 3 9 10 -2 8 -12 10
-12 10 -1 0 11 3 11 15 1 12 -10 15 -10 15 0 0 9 4 9 13 2 8 -7 18 -7 27 -2 9
6 17 5 22 -3 6 -9 8 -9 8 1 0 10 5 10 20 2 15 -8 20 -8 20 2 0 9 3 9 10 -2 7
-11 10 -11 10 -2 0 9 5 10 18 4 17 -9 49 -8 59 2 3 3 14 1 24 -5 13 -6 19 -6
19 0 0 6 7 8 15 5 8 -4 22 -1 29 5 11 10 17 8 25 -6 6 -10 11 -12 11 -5 0 6 5
12 11 12 5 0 8 -3 6 -8 -3 -4 6 -7 19 -7 13 0 24 3 24 8 0 4 5 7 11 7 5 0 7
-4 4 -10 -4 -7 3 -7 20 0 17 7 24 7 20 0 -3 -6 -1 -10 4 -10 6 0 11 8 12 18 0
14 2 14 9 -3 6 -13 9 -15 9 -5 1 13 2 13 11 0 8 -12 10 -12 10 -1 0 11 3 11
17 0 11 -10 14 -10 9 -1 -4 6 -3 12 3 12 5 0 12 -6 14 -12 4 -10 6 -10 6 0 1
10 6 10 21 2 15 -8 20 -8 20 2 0 9 3 9 10 -2 8 -12 10 -12 10 -1 0 11 3 11 15
1 12 -10 15 -10 15 0 0 9 4 9 13 2 8 -7 18 -7 27 -2 8 5 21 5 32 -1 12 -6 18
-6 18 0 0 6 7 8 15 5 8 -4 22 -1 29 5 11 10 17 8 25 -6 6 -10 11 -12 11 -5 0
6 5 12 11 12 5 0 8 -3 6 -7 -3 -5 21 -8 54 -8 45 0 59 3 60 15 0 10 3 8 9 -5
6 -13 9 -15 9 -5 1 13 2 13 11 0 8 -12 10 -12 10 -1 0 11 3 11 17 0 11 -10 14
-10 9 -1 -9 15 -1 15 25 2 12 -7 19 -7 19 -1 0 6 7 8 15 5 8 -4 22 -1 29 5 11
10 17 8 25 -6 6 -10 11 -12 11 -5 0 6 5 12 11 12 5 0 8 -3 6 -7 -3 -5 21 -8
54 -8 45 0 59 3 60 15 0 10 3 8 9 -5 6 -13 9 -15 9 -5 1 13 2 13 11 0 7 -11
10 -11 10 -2 0 8 5 10 12 6 16 -10 88 -11 88 -1 0 4 6 5 12 0 16 -9 69 -4 85
9 8 6 15 3 22 -9 6 -10 11 -12 11 -5 0 6 5 12 11 12 5 0 8 -3 6 -8 -3 -4 6 -7
19 -7 17 0 23 4 19 15 -4 13 -4 13 7 0 14 -16 61 -23 52 -8 -3 5 6 7 19 4 17
-3 27 1 31 10 4 10 1 13 -7 9 -6 -4 -4 0 5 8 10 8 18 19 18 26 0 6 8 11 18 11
14 0 15 2 2 10 -14 9 -7 14 13 11 5 -1 6 3 3 8 -9 14 5 43 19 37 8 -3 11 4 9
19 -1 17 4 26 17 30 10 4 19 12 19 18 0 7 11 29 25 50 14 20 23 42 19 49 -4 6
-3 8 3 5 6 -4 19 9 29 28 10 19 22 35 25 35 4 0 10 11 13 25 4 14 11 25 17 25
6 0 8 4 5 8 -3 5 3 18 14 29 10 12 16 24 13 27 -4 3 -1 6 5 6 7 0 11 3 10 8
-2 4 7 18 20 32 12 13 22 32 22 42 0 11 5 16 10 13 6 -4 13 7 16 24 4 17 10
28 15 25 8 -5 13 9 10 29 0 4 6 7 14 7 14 0 19 14 18 47 -1 7 3 10 8 7 5 -3 9
0 9 6 0 6 5 8 12 4 7 -4 8 -3 4 4 -8 13 17 55 27 46 4 -4 4 3 2 15 -2 12 0 19
4 16 5 -2 14 9 21 25 7 17 16 30 21 30 5 0 9 9 9 21 0 11 4 18 9 14 5 -3 12
-1 16 5 3 5 1 10 -5 10 -6 0 -8 5 -5 10 4 6 11 7 17 4 7 -5 9 -1 5 9 -3 9 0
18 9 21 9 3 12 10 9 16 -3 5 1 10 9 10 10 0 16 9 16 24 0 14 9 31 20 39 11 8
17 17 13 20 -3 4 -2 7 4 7 6 0 14 11 17 25 4 14 10 23 15 20 5 -2 12 2 15 11
3 8 2 12 -4 9 -5 -3 -7 1 -4 9 3 8 12 12 19 10 9 -4 13 2 11 20 -2 14 1 23 5
20 5 -3 12 3 16 13 3 10 12 22 20 26 7 4 13 17 13 27 0 11 5 20 11 20 6 0 8 7
5 16 -3 8 -2 12 4 9 6 -3 10 -1 10 5 0 6 5 8 11 4 7 -4 10 -1 7 7 -7 19 10 51
23 44 5 -4 8 -3 7 2 -4 14 13 53 23 53 5 0 9 9 9 20 0 11 6 20 14 20 8 0 18 5
22 12 4 7 3 8 -4 4 -19 -11 -2 23 25 52 13 14 21 32 18 39 -2 8 -1 12 4 8 5
-3 22 20 36 50 15 31 34 59 42 64 8 4 14 11 14 14 -3 20 0 27 12 24 6 -1 11 4
10 11 -2 6 6 21 17 32 18 18 25 40 21 64 -1 5 5 3 14 -4 13 -11 15 -10 9 4 -3
9 -1 16 5 16 6 0 10 3 9 8 -3 15 15 42 25 35 6 -3 7 -1 3 5 -7 12 11 50 34 69
8 7 11 13 6 13 -5 0 1 8 12 19 12 10 22 23 22 30 0 6 5 11 11 11 5 0 8 4 4 9
-3 5 -1 12 5 16 6 4 7 11 4 17 -4 6 -2 8 4 4 6 -3 13 3 17 14 3 11 10 20 15
20 5 0 6 8 3 18 -6 14 -4 15 9 4 13 -10 15 -9 11 12 -3 16 2 28 16 38 11 8 18
18 14 22 -4 4 -1 11 7 16 8 5 15 15 15 22 1 7 6 12 13 11 12 -3 16 9 13 36 -2
7 2 10 8 6 6 -3 11 1 11 9 0 9 4 16 10 16 5 0 9 3 9 8 -3 20 3 32 17 32 8 0
13 4 9 10 -3 5 3 18 15 30 18 18 25 40 21 64 -1 5 6 3 16 -4 10 -8 15 -11 11
-6 -3 4 0 19 7 33 8 15 11 31 8 36 -3 6 -2 8 3 5 11 -7 35 17 27 26 -4 3 -1 6
6 6 7 0 11 6 8 14 -3 8 1 17 9 20 9 3 12 10 9 16 -3 5 1 10 10 10 9 0 13 5 10
10 -3 6 -2 10 4 10 5 0 8 9 6 19 -3 15 1 18 12 14 11 -4 14 -2 9 5 -4 7 -2 12
4 12 6 0 8 5 5 10 -3 6 -1 10 6 10 7 0 10 3 6 6 -3 3 2 14 11 25 9 11 16 22
14 25 -2 3 7 14 20 25 13 11 16 18 8 14 -9 -4 -7 0 4 9 10 8 15 20 10 27 -4 7
-3 10 4 5 6 -4 20 13 34 43 12 27 26 47 30 45 4 -3 8 1 8 10 0 8 5 16 10 18 6
2 12 13 13 25 0 12 4 21 7 20 3 -1 6 2 7 6 1 5 10 15 20 24 11 8 12 12 3 8 -8
-4 -4 3 10 15 14 12 18 19 10 15 -10 -4 -9 -2 2 8 10 8 15 17 11 20 -3 4 -1 7
6 7 8 0 11 6 7 16 -3 8 -2 12 4 9 9 -6 14 8 11 28 -1 5 2 6 6 4 10 -6 34 19
26 27 -4 3 -1 6 6 6 6 0 11 8 9 18 -2 9 2 16 9 15 8 -2 10 4 6 14 -4 11 -3 14
5 9 8 -5 12 0 12 14 0 12 4 19 9 16 11 -7 23 22 14 36 -3 7 -1 8 5 4 7 -4 17
7 26 29 8 19 20 35 26 35 6 0 9 4 5 9 -3 5 1 16 9 24 8 8 12 17 9 21 -4 3 2 6
13 7 10 0 14 3 7 6 -10 3 -10 7 0 18 7 7 15 11 20 8 4 -2 7 -1 6 4 -3 19 2 34
10 29 5 -4 7 4 3 16 -3 14 -1 19 6 14 7 -4 14 3 18 19 3 14 10 25 16 25 5 0 6
5 3 10 -3 6 -1 10 4 10 6 0 11 6 11 13 0 7 9 19 19 26 11 8 18 23 15 34 -2 11
-1 17 2 14 10 -10 32 17 26 32 -4 10 -1 12 8 6 10 -6 12 -4 7 8 -4 10 1 18 13
22 12 4 17 13 15 26 -2 11 0 17 5 14 5 -3 12 6 16 20 3 14 9 24 12 21 7 -8 33
44 26 55 -3 5 3 6 12 2 12 -4 15 -3 10 5 -4 7 -3 12 3 12 5 0 8 9 6 20 -2 11
1 23 7 26 7 4 8 2 4 -4 -4 -7 -2 -12 3 -12 6 0 11 5 11 10 0 19 3 25 19 38 9
8 10 11 4 7 -9 -4 -11 -1 -7 9 3 9 9 14 13 12 4 -3 14 9 24 25 9 17 12 27 5
23 -7 -4 -8 -3 -4 4 4 7 13 12 21 12 8 0 12 8 10 20 -3 17 4 23 25 22 3 0 6
11 7 25 0 15 8 30 17 35 9 5 14 13 11 18 -3 4 2 11 11 14 8 3 12 10 9 16 -3 6
1 13 9 16 9 3 13 10 10 15 -3 5 2 9 10 9 9 0 15 3 15 8 -4 21 2 43 10 38 8 -5
26 40 23 56 -1 4 6 4 15 1 13 -5 15 -2 10 16 -4 18 -1 24 14 28 14 4 19 12 16
24 -3 11 0 22 5 26 7 4 8 1 3 -8 -8 -12 -6 -12 8 0 9 7 15 17 12 21 -3 4 2 13
10 20 8 7 12 16 9 21 -3 5 2 9 11 9 9 0 14 4 10 10 -3 5 3 18 15 30 11 11 21
26 22 32 2 7 10 19 18 26 8 8 9 11 3 7 -9 -4 -11 -1 -7 9 3 9 10 13 15 10 5
-3 9 2 9 10 0 8 8 20 18 25 10 6 12 11 4 11 -7 0 -2 10 12 23 14 13 22 27 18
31 -4 4 1 14 11 21 10 7 19 17 20 22 1 4 5 7 9 6 4 -2 5 3 2 11 -3 7 2 16 11
20 9 3 13 10 10 16 -3 6 1 13 9 16 9 3 16 15 16 25 0 11 7 19 16 19 8 0 12 5
9 11 -4 6 1 17 11 25 11 9 13 13 4 9 -8 -4 -7 0 4 9 10 8 16 22 13 30 -4 10
-1 13 7 10 8 -3 17 0 22 7 5 8 3 10 -5 4 -10 -5 -9 -2 0 13 7 12 17 19 21 16
4 -3 5 1 2 9 -3 8 2 17 12 21 13 5 14 9 4 21 -11 13 -10 14 4 9 9 -4 16 -1 16
6 0 7 8 19 18 27 10 9 11 12 2 7 -14 -7 24 43 44 57 5 4 0 9 -10 12 -16 4 -16
5 3 6 15 1 21 6 17 15 -3 8 0 17 7 22 8 5 10 3 4 -6 -6 -10 -4 -12 8 -7 12 4
15 1 12 -14 -3 -15 0 -19 10 -15 9 3 12 -1 10 -15 -2 -11 0 -17 5 -14 8 5 26
-32 22 -47 -1 -4 7 -10 18 -13 10 -3 17 -12 14 -19 -3 -7 2 -16 10 -19 9 -4
16 -13 16 -22 0 -8 5 -15 11 -15 5 0 8 -4 4 -9 -3 -5 5 -20 18 -33 13 -13 21
-30 19 -37 -3 -8 0 -11 6 -7 5 3 15 -8 21 -24 5 -17 14 -30 20 -30 5 0 8 -9 6
-20 -2 -11 -1 -19 3 -16 7 4 33 -19 32 -29 -2 -13 34 -63 42 -59 4 3 5 -2 2
-10 -4 -10 -1 -16 7 -16 12 0 12 -2 0 -9 -11 -7 -9 -10 8 -16 12 -3 19 -11 16
-16 -4 -5 0 -12 9 -15 8 -3 17 -12 20 -20 3 -8 1 -12 -4 -9 -6 3 -7 -1 -4 -9
6 -15 18 -20 38 -17 5 1 4 -5 -4 -13 -9 -11 -9 -16 -1 -16 6 0 16 -11 23 -25
6 -13 16 -21 22 -18 6 4 5 -1 -3 -11 -12 -15 -12 -17 0 -14 8 2 13 -4 13 -14
-1 -10 2 -16 6 -13 5 3 14 -8 22 -25 7 -16 16 -30 20 -30 5 0 8 -7 8 -15 0 -9
7 -18 15 -21 8 -4 12 -10 9 -15 -3 -5 0 -9 6 -9 6 0 9 -4 5 -9 -3 -5 -1 -12 5
-16 6 -4 7 -12 4 -18 -4 -7 -4 -9 0 -5 10 8 36 -14 29 -25 -2 -4 3 -10 12 -13
12 -5 13 -9 4 -20 -9 -11 -7 -14 9 -14 14 0 21 -9 26 -31 4 -20 10 -28 18 -23
8 5 9 2 5 -9 -3 -10 -2 -17 3 -17 6 0 10 -7 10 -15 0 -8 4 -15 8 -15 5 0 19
-20 32 -45 13 -25 27 -45 32 -45 5 0 6 -4 3 -10 -3 -5 -2 -10 4 -10 6 0 15
-10 22 -21 9 -17 8 -20 -3 -14 -7 3 -1 -5 14 -18 18 -17 23 -27 15 -30 -7 -3
-5 -6 5 -6 11 -1 15 -6 12 -16 -4 -10 0 -15 11 -15 9 0 13 -4 10 -10 -3 -5 -1
-10 5 -10 6 0 8 -4 5 -10 -3 -5 -1 -10 5 -10 6 0 9 -4 6 -9 -3 -5 1 -12 10
-15 9 -4 14 -13 10 -21 -4 -11 1 -15 17 -15 15 0 18 -3 9 -8 -9 -6 -7 -13 7
-29 11 -11 17 -23 14 -27 -3 -3 2 -8 11 -12 9 -3 13 -10 10 -15 -3 -5 0 -9 6
-9 6 0 8 -4 5 -10 -3 -5 -2 -10 4 -10 5 0 13 -9 16 -20 4 -11 19 -33 33 -47
15 -15 18 -20 7 -12 l-20 14 20 -25 c11 -14 25 -28 30 -32 7 -5 7 -8 0 -8 -5
0 -5 -4 2 -8 6 -4 13 -13 15 -21 2 -7 13 -24 26 -37 13 -13 20 -29 17 -34 -3
-6 -1 -10 5 -10 6 0 9 -3 7 -7 -7 -11 19 -33 27 -25 4 3 4 -1 1 -10 -4 -9 -1
-19 4 -23 6 -3 8 -12 5 -18 -4 -7 -4 -9 0 -5 12 10 34 -15 28 -31 -3 -9 -1
-12 6 -7 9 5 30 -32 23 -42 -1 -2 8 -12 20 -23 15 -12 17 -19 8 -19 -12 0 -12
-2 1 -9 8 -6 17 -8 20 -6 4 2 7 -2 8 -10 1 -8 3 -22 4 -30 1 -8 7 -15 15 -15
7 0 12 -3 11 -7 -3 -16 15 -43 25 -36 6 3 7 1 3 -5 -4 -7 4 -23 17 -36 16 -16
21 -28 15 -34 -7 -7 -3 -14 11 -21 12 -7 21 -18 21 -27 0 -8 6 -17 14 -20 8
-3 12 -12 9 -20 -3 -9 1 -14 12 -14 12 0 15 -5 10 -21 -4 -12 -3 -19 1 -16 10
6 28 -12 32 -33 2 -8 8 -16 13 -18 5 -2 9 -10 9 -18 0 -8 5 -14 10 -14 6 0 10
-7 10 -15 0 -9 7 -18 15 -21 8 -4 12 -10 9 -15 -7 -12 21 -40 32 -31 5 4 2 -2
-6 -12 -10 -13 -10 -17 -2 -12 7 4 12 2 12 -8 0 -8 7 -19 16 -24 9 -5 17 -13
17 -18 1 -5 5 -8 9 -7 4 2 5 -3 2 -10 -2 -7 5 -23 16 -35 13 -14 16 -22 8 -22
-9 0 -9 -3 2 -9 8 -6 17 -8 20 -6 6 4 8 -3 12 -44 2 -12 8 -17 17 -13 9 3 12
0 9 -9 -3 -8 4 -19 16 -26 13 -7 15 -12 7 -13 -10 0 -7 -6 7 -19 12 -10 19
-21 15 -25 -3 -3 0 -6 7 -6 7 0 11 -3 7 -6 -6 -6 1 -17 34 -54 12 -13 14 -21
6 -29 -11 -11 2 -16 26 -12 5 1 6 -3 2 -9 -3 -5 -1 -10 5 -10 7 0 9 -8 4 -22
-3 -13 -3 -20 2 -15 9 8 45 -43 38 -54 -2 -4 5 -14 16 -22 11 -7 17 -17 13
-20 -3 -4 2 -7 13 -8 11 0 14 -3 6 -6 -9 -3 -7 -10 9 -24 12 -10 18 -19 14
-19 -5 0 0 -7 11 -16 10 -8 12 -13 4 -9 -12 5 -12 4 1 -7 9 -7 14 -18 12 -25
-2 -6 6 -14 18 -18 17 -6 19 -9 8 -16 -11 -7 -11 -9 -1 -9 7 0 20 -16 28 -35
8 -19 19 -35 26 -35 6 0 8 -3 5 -6 -4 -4 2 -15 14 -25 14 -12 16 -18 7 -22 -8
-3 -6 -6 6 -6 11 -1 16 -6 13 -14 -3 -8 3 -20 13 -27 11 -8 17 -17 14 -22 -3
-4 2 -11 10 -14 9 -3 13 -10 10 -15 -3 -5 0 -9 7 -9 7 0 10 -3 6 -6 -3 -4 1
-13 9 -21 8 -8 12 -19 9 -24 -4 -5 1 -9 10 -9 9 0 13 -5 10 -10 -3 -6 -1 -10
4 -10 6 0 11 -7 11 -15 0 -9 7 -18 15 -21 8 -4 13 -10 10 -14 -2 -4 4 -18 15
-30 11 -12 17 -26 15 -30 -3 -4 2 -10 10 -14 8 -3 15 -12 15 -21 0 -8 5 -15
11 -15 5 0 7 -4 4 -10 -3 -5 2 -10 12 -11 11 0 13 -3 5 -6 -9 -3 -7 -10 9 -24
12 -10 18 -19 14 -19 -5 0 0 -7 11 -16 10 -8 12 -13 4 -9 -8 4 -6 -1 4 -9 11
-9 16 -16 11 -16 -5 0 6 -15 23 -33 18 -18 30 -36 26 -40 -9 -9 32 -58 42 -49
5 4 2 -2 -6 -12 -10 -13 -10 -17 -2 -12 8 5 12 0 12 -16 0 -18 2 -20 10 -8 8
12 10 11 10 -7 0 -12 7 -28 15 -36 8 -8 11 -17 8 -21 -4 -3 1 -6 10 -6 9 0 17
-7 17 -16 0 -9 8 -23 18 -31 11 -10 12 -12 2 -8 -8 4 -6 -1 4 -9 11 -9 16 -16
11 -16 -5 0 2 -11 14 -24 14 -15 20 -30 15 -38 -4 -7 -4 -10 1 -6 9 8 45 -34
45 -52 0 -6 7 -18 15 -27 8 -8 13 -19 10 -24 -4 -5 1 -9 10 -9 10 0 15 -6 12
-13 -5 -14 18 -39 28 -29 4 4 6 0 5 -8 -4 -27 0 -41 10 -35 6 3 10 -3 10 -14
0 -12 4 -21 9 -21 5 0 14 -13 21 -30 7 -16 16 -30 20 -30 4 0 13 -13 20 -30 7
-16 18 -30 24 -30 6 0 4 -5 -4 -10 -13 -8 -12 -10 3 -10 10 0 16 -4 13 -8 -3
-5 4 -14 14 -22 10 -8 17 -17 14 -21 -2 -4 3 -14 12 -23 8 -9 16 -24 17 -35 1
-12 6 -17 17 -13 8 3 12 2 8 -3 -10 -11 9 -46 54 -95 12 -14 13 -21 5 -30 -9
-10 -8 -12 6 -7 11 4 16 3 12 -3 -3 -6 1 -13 9 -16 9 -3 14 -10 11 -14 -3 -5
1 -15 9 -23 8 -8 12 -17 9 -21 -4 -3 -1 -6 6 -6 7 0 10 -4 7 -9 -3 -5 1 -11 9
-15 8 -3 15 -12 15 -21 0 -8 5 -15 11 -15 5 0 7 -5 4 -10 -3 -6 2 -10 12 -10
14 0 15 -2 5 -9 -11 -6 -10 -10 3 -15 11 -4 15 -12 11 -23 -4 -10 -4 -14 0
-10 7 7 12 1 52 -72 12 -22 25 -41 28 -41 3 0 2 5 -2 12 -4 7 -3 8 4 4 6 -4 9
-13 5 -21 -3 -8 0 -15 7 -15 6 0 8 -4 5 -10 -3 -5 -1 -10 4 -10 6 0 11 -7 11
-15 0 -8 5 -15 10 -15 6 0 10 -6 10 -14 0 -8 5 -18 12 -22 7 -5 8 -3 3 6 -5 8
-4 11 3 6 6 -4 9 -13 5 -21 -3 -8 0 -15 7 -15 6 0 8 -5 4 -12 -5 -7 -2 -9 8
-5 9 3 21 0 27 -6 8 -8 11 -8 11 2 0 10 3 11 13 3 8 -7 18 -7 27 -2 8 5 21 5
32 -1 12 -6 18 -6 18 0 0 6 7 8 15 5 8 -4 22 -1 29 5 11 10 17 8 25 -6 6 -10
11 -12 11 -5 0 6 5 12 11 12 5 0 8 -3 6 -8 -3 -4 21 -7 54 -7 45 0 59 3 60 15
0 10 3 8 9 -5 6 -13 9 -15 9 -5 1 13 2 13 11 0 8 -12 10 -12 10 -1 0 11 3 11
17 0 11 -10 14 -10 9 -1 -9 15 -1 15 25 2 12 -7 19 -7 19 -1 0 6 7 8 15 5 8
-4 22 -1 29 5 11 10 17 8 25 -6 6 -10 11 -12 11 -5 0 6 5 12 11 12 5 0 8 -3 6
-7 -3 -5 21 -8 54 -8 45 0 59 3 60 15 0 10 3 8 9 -5 6 -13 9 -15 9 -5 1 13 2
13 11 0 7 -11 10 -11 10 -2 0 8 5 10 12 6 16 -10 88 -11 88 -1 0 4 6 5 12 0
16 -9 69 -4 85 9 8 6 15 3 22 -9 6 -10 11 -12 11 -5 0 6 5 12 11 12 5 0 8 -3
6 -7 -3 -5 6 -8 19 -8 17 0 23 4 19 15 -4 13 -4 13 7 0 13 -15 61 -23 52 -8
-3 4 -1 8 5 8 5 0 12 -6 14 -12 4 -10 6 -10 6 0 1 10 6 10 21 2 15 -8 20 -8
20 2 0 9 3 9 10 -2 7 -11 10 -11 10 -2 0 9 5 10 18 4 17 -9 49 -8 59 2 3 3 14
1 24 -5 13 -6 19 -6 19 0 0 6 7 8 15 5 8 -4 22 -1 29 5 11 10 17 8 25 -6 6
-10 11 -12 11 -5 0 6 5 12 11 12 5 0 8 -3 6 -7 -3 -5 6 -8 19 -8 13 0 24 3 24
8 0 4 5 7 11 7 5 0 7 -4 4 -10 -4 -7 3 -7 20 0 17 7 24 7 20 0 -3 -6 -1 -10 4
-10 6 0 11 8 12 18 0 14 2 14 9 -3 6 -13 9 -15 9 -5 1 13 2 13 11 0 8 -12 10
-12 10 -1 0 11 3 11 17 0 11 -10 14 -10 9 -1 -4 6 -3 12 3 12 5 0 12 -6 14
-12 4 -10 6 -10 6 0 1 10 6 10 21 2 15 -8 20 -8 20 2 0 9 3 9 10 -2 8 -12 10
-12 10 -1 0 11 3 11 15 1 11 -9 15 -9 15 -1 0 7 5 9 11 5 16 -10 109 -11 109
-1 0 5 6 5 12 0 16 -9 69 -4 85 9 8 6 15 3 22 -9 6 -10 11 -12 11 -5 0 6 5 12
11 12 5 0 8 -4 5 -9 -3 -4 6 -6 21 -3 19 4 24 2 18 -8 -5 -9 -4 -11 4 -6 6 4
8 12 5 18 -4 5 4 4 17 -2 13 -7 21 -9 17 -5 -4 4 -3 17 3 28 8 14 8 18 0 13
-6 -4 -11 -2 -11 4 0 12 -41 73 -53 78 -4 2 -5 8 -1 13 3 5 0 9 -7 9 -7 0 -10
3 -6 6 3 4 -1 13 -9 21 -8 8 -11 19 -8 25 4 7 2 8 -4 4 -7 -4 -12 -2 -12 4 0
6 -5 8 -12 4 -10 -6 -10 -4 0 8 10 13 10 17 -4 22 -9 4 -14 9 -11 13 4 3 -3
14 -15 24 -11 11 -17 19 -12 19 5 0 0 7 -10 15 -14 10 -15 15 -6 15 9 0 6 6
-8 16 -12 8 -22 21 -22 28 0 8 -7 19 -15 26 -8 7 -13 15 -10 19 2 4 -5 14 -16
21 -10 8 -19 22 -19 31 0 9 -7 20 -16 23 -9 4 -14 13 -10 22 3 8 2 13 -3 9 -5
-3 -15 8 -23 25 -7 16 -17 30 -23 30 -5 0 -3 5 5 10 12 8 10 10 -8 10 -13 0
-21 4 -18 9 9 14 -5 41 -21 41 -8 0 -11 4 -8 10 3 5 1 10 -6 10 -8 0 -8 5 2
18 7 9 9 14 5 10 -13 -11 -48 34 -42 55 4 16 2 16 -11 5 -14 -11 -15 -11 -12
1 3 8 -3 23 -13 33 -10 10 -16 23 -13 28 4 6 -2 10 -11 10 -10 0 -14 3 -11 7
4 3 2 12 -4 20 -6 7 -8 13 -4 13 5 0 -2 8 -13 19 -12 10 -19 21 -15 25 3 3 -2
6 -13 6 -16 0 -17 2 -4 10 10 6 11 10 3 10 -7 0 -13 7 -13 15 0 9 -7 18 -15
21 -8 4 -12 10 -9 15 3 5 2 9 -3 9 -4 0 -15 15 -22 32 -8 18 -23 40 -32 49
-14 12 -16 18 -6 28 9 10 8 11 -7 5 -13 -5 -17 -4 -13 3 4 6 0 14 -9 17 -9 4
-14 9 -11 13 4 3 -1 12 -11 20 -11 10 -12 12 -2 8 8 -4 4 3 -10 15 -14 12 -19
19 -12 15 11 -6 12 -3 2 14 -6 12 -16 18 -22 15 -7 -4 -8 -3 -4 4 4 7 2 12 -5
12 -7 0 -9 3 -6 7 4 3 -1 12 -11 20 -9 8 -11 11 -3 7 7 -4 3 7 -10 25 -12 17
-27 31 -32 31 -5 0 -4 7 3 16 8 8 9 14 4 12 -5 -2 -10 1 -11 5 -1 5 -10 15
-20 22 -10 7 -15 17 -11 21 5 4 -1 14 -12 21 -11 8 -18 18 -15 23 3 4 -2 10
-10 14 -8 3 -15 12 -15 21 0 8 -5 15 -11 15 -5 0 -8 4 -5 8 3 5 -4 16 -15 25
-11 10 -17 22 -14 27 3 6 1 10 -4 10 -6 0 -11 7 -11 16 0 8 -4 12 -10 9 -5 -3
-10 3 -10 14 0 12 -5 21 -11 21 -6 0 -8 7 -5 16 4 10 2 13 -6 8 -8 -5 -9 -2
-5 10 6 14 3 17 -9 12 -11 -4 -15 -2 -11 7 3 8 -3 20 -14 28 -10 7 -19 21 -19
30 0 9 -7 20 -16 23 -9 4 -14 13 -10 22 3 8 2 12 -4 9 -6 -3 -10 1 -10 9 0 9
-5 16 -11 16 -5 0 -7 5 -4 10 3 6 0 10 -8 10 -13 0 -15 5 -19 49 -2 13 -8 17
-23 14 -16 -4 -17 -3 -5 6 14 10 7 16 -13 12 -5 -1 -5 4 -1 10 4 7 -1 18 -11
26 -11 7 -15 13 -10 13 4 0 1 8 -8 18 -8 9 -17 24 -19 32 -2 8 -14 22 -26 31
-15 11 -20 19 -13 23 17 11 13 26 -6 19 -10 -4 -14 -2 -9 5 3 6 -2 15 -11 21
-10 6 -14 11 -8 11 5 0 -1 7 -13 16 -19 13 -21 18 -10 32 8 10 9 13 1 9 -7 -4
-14 1 -18 13 -3 11 -14 20 -23 20 -13 0 -14 2 -4 8 12 8 -4 38 -45 80 -7 8
-11 17 -8 22 3 4 -2 10 -10 14 -8 3 -12 12 -9 21 4 10 0 15 -10 15 -9 0 -16 5
-16 10 0 21 -2 25 -16 33 -8 4 -14 13 -14 18 0 6 -8 18 -18 27 -10 10 -11 13
-3 7 12 -9 12 -7 2 13 -7 12 -17 20 -23 16 -6 -4 -8 -3 -4 4 3 6 -1 18 -10 26
-8 9 -12 16 -7 16 4 0 0 5 -10 11 -9 6 -15 14 -12 20 4 5 1 9 -4 9 -6 0 -11 5
-11 11 0 6 -7 17 -15 26 -8 8 -13 19 -10 24 4 5 2 9 -3 9 -5 0 -15 13 -22 30
-7 16 -16 27 -21 24 -5 -3 -9 3 -9 13 0 10 -9 24 -21 31 -16 10 -18 16 -9 27
9 10 7 15 -9 20 -11 3 -20 12 -18 18 1 7 -3 11 -8 10 -6 -1 -12 8 -12 20 -1
11 -9 25 -18 29 -8 5 -13 13 -10 19 4 5 1 9 -5 9 -7 0 -9 7 -6 16 3 8 2 12 -3
9 -5 -3 -12 4 -16 15 -4 11 -10 18 -15 15 -5 -3 -7 4 -5 15 3 14 -1 20 -13 20
-13 0 -14 2 -4 9 10 6 9 10 -7 14 -13 3 -19 11 -15 20 3 8 -2 17 -10 20 -9 4
-16 13 -16 22 0 8 -4 15 -10 15 -5 0 -10 7 -10 16 0 8 -6 22 -12 29 -31 34
-38 45 -31 45 4 0 -1 6 -12 13 -11 9 -15 19 -10 27 5 9 4 11 -3 6 -11 -6 -14
0 -11 20 0 4 -5 10 -13 15 -7 5 -13 14 -13 21 -1 7 -7 12 -14 10 -9 -2 -12 4
-8 18 3 13 -2 25 -14 33 -10 8 -16 17 -12 20 3 4 1 7 -6 7 -7 0 -17 14 -22 30
-6 17 -18 30 -27 30 -15 0 -15 2 -2 10 9 6 10 10 3 10 -6 0 -15 9 -18 20 -3
11 -14 20 -23 20 -15 0 -15 2 -2 10 10 6 11 10 3 10 -7 0 -13 7 -13 15 0 8 -4
15 -10 15 -5 0 -6 7 -3 17 4 11 3 14 -5 9 -7 -4 -12 -2 -12 4 0 6 -4 9 -9 6
-4 -3 -8 4 -7 17 1 13 -4 21 -12 19 -7 -1 -12 3 -11 10 3 20 -12 49 -22 42 -5
-3 -9 1 -9 9 0 21 -26 68 -33 60 -4 -3 -7 1 -7 10 0 9 -5 17 -12 17 -6 0 -8 3
-5 7 4 3 -1 12 -11 20 -10 9 -11 11 -2 7 13 -7 13 -6 0 12 -8 10 -21 23 -28
27 -7 5 -10 12 -7 18 4 5 1 9 -5 9 -7 0 -9 7 -6 16 4 10 2 13 -6 8 -8 -5 -9
-2 -5 10 4 10 3 15 -3 11 -5 -3 -14 4 -20 15 -6 11 -7 20 -3 20 4 0 -3 7 -15
16 -13 9 -21 21 -19 27 2 7 -9 25 -25 40 -15 16 -28 35 -28 42 0 8 -7 18 -16
23 -9 5 -15 12 -15 15 2 18 -1 24 -24 50 -15 16 -21 27 -13 27 7 1 2 7 -12 15
-14 8 -19 14 -11 15 11 0 10 4 -4 13 -12 9 -15 19 -10 28 5 8 5 11 1 7 -10 -8
-36 14 -29 25 2 4 -1 7 -7 7 -6 0 -10 8 -8 18 2 10 -2 16 -10 14 -8 -1 -11 2
-7 8 3 5 -1 13 -10 16 -9 4 -14 13 -11 20 3 8 1 14 -5 14 -6 0 -9 7 -6 14 4
11 1 13 -10 9 -12 -5 -15 -2 -10 10 4 10 2 16 -5 14 -5 -1 -12 6 -13 16 -2 10
-12 25 -22 33 -10 7 -14 14 -10 14 5 0 1 7 -7 16 -9 8 -14 20 -11 25 4 5 1 9
-4 9 -6 0 -11 8 -11 18 0 14 -2 15 -10 2 -8 -12 -10 -10 -10 10 0 14 -9 32
-19 39 -11 8 -17 20 -14 28 3 8 -2 13 -13 13 -15 0 -16 2 -5 9 11 7 9 10 -8
16 -17 5 -20 10 -11 20 8 10 6 15 -9 20 -11 3 -20 12 -18 18 1 7 -3 11 -10 10
-7 -2 -10 4 -7 12 3 8 -6 26 -20 40 -14 14 -21 25 -15 25 5 0 1 10 -11 22 -11
12 -20 26 -20 30 0 5 -4 7 -9 4 -5 -3 -8 2 -7 12 0 9 -4 16 -10 15 -8 -1 -10
6 -6 19 3 14 1 19 -6 14 -7 -4 -12 -1 -12 8 0 9 -9 25 -19 35 -11 11 -17 22
-14 25 4 3 1 6 -5 6 -7 0 -12 7 -12 15 0 8 -5 15 -11 15 -5 0 -7 5 -4 10 3 6
-1 13 -9 16 -9 3 -14 10 -11 14 3 5 -6 20 -20 34 -14 14 -21 26 -14 26 7 0 2
9 -11 20 -13 11 -19 20 -14 20 5 0 1 5 -10 11 -15 9 -16 13 -5 20 11 7 10 9
-3 9 -12 0 -15 5 -11 15 3 10 0 15 -8 13 -8 -2 -13 4 -13 14 1 10 -7 20 -18
24 -13 4 -18 12 -15 25 3 10 1 16 -4 13 -5 -3 -14 8 -20 25 -6 18 -16 28 -22
24 -5 -3 -7 -1 -3 5 3 6 0 17 -8 25 -8 8 -12 17 -9 21 4 3 1 6 -6 6 -7 0 -9 5
-6 10 3 6 -1 10 -11 10 -11 0 -15 6 -11 20 3 13 0 20 -9 20 -8 0 -14 8 -14 18
0 9 -9 23 -20 30 -12 7 -18 17 -15 22 4 6 0 13 -9 16 -8 3 -12 12 -9 20 3 9
-1 14 -12 14 -9 0 -14 4 -11 9 3 5 -4 20 -15 35 -11 14 -17 30 -14 36 4 6 1 9
-7 8 -7 -2 -12 3 -11 10 2 6 -2 12 -7 12 -6 0 -10 5 -10 11 0 7 -10 20 -22 30
-14 13 -17 19 -7 19 10 1 9 4 -4 11 -9 6 -15 14 -12 20 4 5 1 9 -4 9 -6 0 -11
7 -11 16 0 8 -4 12 -10 9 -5 -3 -10 2 -10 12 -1 23 -25 55 -35 45 -5 -4 -5 1
-2 11 4 12 1 17 -11 18 -11 0 -12 2 -4 6 9 4 7 10 -7 22 -12 10 -18 21 -14 25
3 3 0 6 -7 6 -7 0 -11 3 -7 6 3 3 -5 17 -19 31 -16 16 -23 31 -19 41 3 9 3 13
-1 10 -8 -9 -64 73 -58 84 3 4 0 8 -5 8 -6 0 -11 6 -11 14 0 8 -7 17 -16 20
-8 3 -13 10 -9 16 3 5 -4 19 -15 30 -11 11 -18 26 -14 32 4 7 3 8 -4 4 -7 -4
-12 -1 -12 9 0 9 -4 13 -10 10 -6 -3 -7 1 -4 9 4 11 0 16 -10 16 -9 0 -15 3
-14 8 4 13 -13 52 -23 52 -5 0 -9 7 -9 16 0 8 -4 12 -10 9 -5 -3 -7 0 -4 8 3
8 -2 20 -11 27 -8 7 -15 18 -15 25 0 7 -10 20 -22 29 -13 9 -17 14 -10 11 6
-3 12 -1 12 4 0 6 -7 11 -16 11 -10 0 -14 6 -11 14 4 9 -2 17 -14 21 -14 5
-19 13 -16 26 3 11 1 16 -5 13 -5 -3 -8 2 -6 12 2 14 -2 18 -16 16 -10 -2 -15
1 -12 7 4 5 2 12 -4 16 -6 4 -8 11 -5 16 4 5 -1 12 -9 15 -9 3 -13 10 -10 15
3 5 0 9 -6 9 -6 0 -8 5 -5 10 3 6 -1 10 -11 10 -11 0 -15 6 -11 20 3 11 1 18
-4 14 -8 -5 -13 9 -10 28 0 4 -7 4 -17 1 -15 -6 -15 -5 -3 10 12 15 11 17 -4
17 -10 0 -15 5 -12 13 3 8 -3 20 -14 28 -10 7 -19 18 -19 24 0 6 -9 17 -20 25
-14 10 -17 17 -8 27 8 10 7 13 -5 13 -9 0 -18 10 -20 23 -3 18 -5 18 -6 3z"/>
<path d="M7950 4086 c0 -2 8 -10 18 -17 15 -13 16 -12 3 4 -13 16 -21 21 -21
13z"/>
<path d="M345 2789 c-4 -6 -5 -12 -2 -15 2 -3 7 2 10 11 7 17 1 20 -8 4z"/>
<path d="M1998 1758 c-19 -7 -25 -14 -21 -25 4 -11 2 -14 -5 -9 -7 4 -14 -3
-18 -19 -3 -14 -10 -25 -15 -25 -5 0 -5 -7 -2 -17 4 -11 3 -14 -5 -9 -7 4 -12
1 -12 -8 0 -9 -4 -16 -10 -16 -5 0 -10 -7 -10 -15 0 -8 -4 -15 -10 -15 -5 0
-9 -3 -8 -7 1 -5 -3 -18 -10 -29 -6 -12 -8 -25 -4 -29 4 -5 1 -4 -7 0 -11 6
-13 4 -8 -8 4 -10 2 -14 -7 -11 -7 3 -13 -2 -13 -11 0 -12 7 -15 24 -12 15 3
27 -2 33 -12 8 -14 10 -13 10 4 1 11 4 15 6 8 4 -8 13 -9 29 -3 12 5 25 6 28
4 8 -8 47 15 47 27 0 6 -5 7 -12 3 -7 -5 -8 -3 -4 5 5 7 10 10 14 7 7 -7 52
54 52 71 0 7 7 13 16 13 8 0 12 5 9 10 -3 6 -1 10 4 10 6 0 11 7 11 15 0 8 7
15 16 15 10 0 14 6 10 15 -3 10 1 15 12 15 15 0 15 2 2 10 -13 8 -13 10 2 10
10 0 22 9 28 20 9 16 8 19 -6 13 -10 -3 -15 -2 -12 3 4 5 -5 10 -18 10 -14 1
-21 -2 -18 -8 4 -6 -3 -5 -15 2 -18 9 -26 9 -39 -2 -13 -11 -15 -11 -7 2 7 13
6 13 -7 2 -9 -7 -18 -9 -20 -4 -2 5 -14 5 -30 0z"/>
<path d="M1949 1406 c-1 -3 -2 -12 -3 -18 -1 -7 -7 -12 -14 -11 -6 2 -9 -4 -6
-12 4 -8 1 -15 -7 -15 -7 0 -9 -3 -6 -7 4 -3 1 -13 -6 -21 -10 -13 -9 -15 3
-8 9 4 8 2 -2 -7 -10 -8 -15 -17 -11 -20 3 -4 1 -13 -5 -20 -7 -8 -10 -17 -7
-20 3 -4 2 -5 -2 -2 -3 3 -12 -3 -19 -13 -9 -13 -9 -19 -1 -24 9 -6 9 -8 0 -8
-7 0 -13 -7 -13 -15 0 -8 -5 -15 -11 -15 -5 0 -7 -4 -4 -10 3 -5 1 -10 -4 -10
-6 0 -10 -3 -10 -7 3 -19 -2 -34 -10 -29 -4 3 -8 -2 -8 -12 0 -27 -15 -62 -23
-57 -5 3 -7 -6 -6 -20 2 -14 -1 -22 -7 -18 -6 4 -8 -2 -4 -16 5 -19 3 -20 -11
-9 -10 8 -13 9 -9 1 7 -12 -21 -85 -35 -91 -5 -2 -8 -8 -8 -13 0 -6 6 -7 13
-3 8 5 8 3 -2 -9 -7 -9 -17 -14 -22 -12 -4 3 -6 -4 -4 -15 2 -11 0 -20 -6 -20
-5 0 -8 -6 -7 -12 2 -7 -2 -12 -8 -11 -7 1 -9 -8 -6 -24 3 -18 1 -24 -7 -19
-6 4 -11 3 -11 -3 0 -5 -3 -17 -7 -27 -5 -13 -3 -15 7 -9 9 5 11 4 6 -3 -4 -7
-14 -12 -21 -12 -9 0 -12 -6 -9 -15 4 -8 1 -15 -6 -15 -6 0 -8 -4 -5 -10 3 -5
1 -10 -5 -10 -6 0 -8 -4 -5 -10 3 -5 2 -10 -4 -10 -5 0 -8 -9 -6 -20 2 -11 0
-18 -6 -15 -5 4 -9 1 -9 -6 0 -7 -8 -21 -17 -32 -10 -11 -12 -17 -5 -13 21 12
13 -8 -9 -22 -16 -10 -18 -16 -10 -26 9 -10 8 -15 -4 -20 -9 -3 -13 -10 -10
-16 3 -5 1 -10 -4 -10 -6 0 -10 -3 -10 -7 3 -20 -2 -34 -11 -28 -6 4 -7 -1 -3
-11 4 -10 2 -15 -4 -11 -5 3 -10 1 -11 -6 -3 -32 -10 -49 -23 -58 -8 -5 -10
-9 -5 -9 5 0 2 -8 -5 -17 -12 -15 -12 -16 1 -8 13 8 13 6 1 -8 -7 -9 -17 -14
-22 -11 -5 3 -5 -6 1 -20 8 -21 7 -24 -7 -19 -10 4 -14 2 -9 -5 3 -6 2 -13 -4
-17 -6 -4 -8 -11 -5 -16 4 -5 1 -9 -5 -9 -6 0 -8 -4 -5 -10 3 -5 1 -10 -5 -10
-6 0 -8 -4 -5 -10 3 -5 2 -10 -2 -10 -5 0 -9 -10 -10 -21 -1 -12 -7 -27 -14
-33 -9 -8 -10 -7 -4 3 6 10 4 12 -4 7 -8 -5 -9 -12 -2 -20 7 -9 4 -17 -11 -30
-17 -15 -18 -20 -7 -26 18 -10 110 -7 128 4 9 6 12 5 8 -1 -4 -6 0 -14 9 -17
9 -3 12 -2 9 4 -4 7 7 9 29 7 20 -2 36 0 36 5 0 5 6 6 13 2 6 -4 9 -4 5 1 -4
4 -2 15 5 23 10 13 9 14 -3 7 -12 -7 -13 -6 -3 7 7 8 10 18 6 22 -4 4 0 4 9 1
13 -5 16 -2 13 14 -2 12 0 21 5 21 4 0 11 7 14 16 4 10 2 13 -7 8 -6 -4 -4 2
6 13 9 11 17 27 17 37 0 9 4 15 9 11 6 -3 14 2 19 11 5 9 12 12 15 7 3 -5 22
-7 41 -5 22 3 33 8 29 15 -3 6 3 4 15 -4 24 -17 96 -14 85 4 -3 6 4 3 17 -6
22 -15 24 -15 37 1 8 9 12 12 9 6 -3 -7 1 -14 9 -18 8 -3 15 0 15 6 0 7 5 6
15 -2 12 -10 15 -10 15 0 0 9 4 9 13 2 8 -7 18 -7 27 -2 9 5 19 5 27 -2 9 -7
13 -7 13 2 0 9 4 9 13 2 8 -7 18 -7 27 -2 9 5 19 5 27 -2 9 -7 13 -7 13 2 0 9
4 9 13 2 8 -7 18 -7 27 -2 9 5 19 5 27 -2 9 -7 13 -7 13 1 0 7 5 9 12 5 7 -5
27 -7 45 -5 30 2 34 -1 39 -28 4 -17 10 -28 15 -25 5 3 9 -4 9 -15 0 -12 4
-21 10 -21 5 0 7 -6 4 -14 -3 -7 2 -21 11 -30 9 -9 14 -23 11 -31 -3 -8 0 -14
6 -12 7 1 12 -4 13 -12 0 -8 6 -16 14 -19 9 -3 11 0 6 9 -6 11 -5 12 6 1 17
-15 43 -16 33 0 -5 8 -3 8 7 2 8 -5 47 -9 87 -10 64 -1 72 1 72 18 0 12 -4 16
-11 12 -8 -4 -9 0 -4 15 4 13 2 21 -5 21 -6 0 -8 4 -5 10 3 5 -2 10 -12 10
-15 0 -16 2 -3 10 12 8 12 10 -5 11 -11 0 -15 3 -8 6 10 3 10 9 0 26 -7 12
-16 25 -22 29 -6 5 -5 8 3 8 10 0 10 3 0 14 -9 10 -15 11 -20 2 -4 -6 -6 3 -4
19 2 19 -3 36 -14 45 -9 8 -16 25 -15 37 1 12 -2 20 -7 17 -4 -3 -8 1 -8 9 0
8 -6 20 -14 27 -8 6 -12 18 -9 26 3 8 0 14 -7 14 -7 0 -10 7 -7 15 4 8 1 17
-5 21 -7 5 -8 2 -3 -6 5 -8 4 -11 -3 -6 -6 4 -9 13 -5 21 3 8 0 15 -5 15 -6 0
-9 9 -7 20 2 11 0 18 -6 15 -5 -4 -9 3 -9 14 0 12 -4 21 -9 21 -9 0 -26 48
-23 63 1 4 -3 7 -10 7 -6 0 -8 3 -5 7 4 3 -2 13 -14 21 -15 10 -17 17 -9 27 8
10 6 17 -10 28 -16 11 -18 16 -8 20 10 5 10 8 -2 19 -20 18 -53 81 -37 72 6
-4 4 2 -7 14 -10 12 -16 28 -13 37 4 8 3 14 -1 14 -4 -1 -14 -1 -22 0 -13 1
-13 2 0 11 10 6 11 10 3 10 -7 0 -13 9 -13 19 0 11 -5 23 -10 26 -6 4 -7 11
-4 17 5 8 1 9 -11 4 -15 -5 -16 -4 -6 8 8 10 9 15 1 18 -6 2 -12 11 -14 20 -1
9 -10 26 -20 37 -10 11 -15 24 -12 29 7 11 -42 112 -54 112 -4 0 -7 10 -6 23
1 12 -8 30 -19 40 -11 10 -13 15 -5 11 13 -7 13 -5 2 9 -8 9 -10 22 -6 28 4 7
3 9 -4 5 -6 -3 -16 3 -22 14 -8 14 -8 20 0 20 6 0 8 5 5 10 -4 6 -11 7 -17 4
-7 -5 -9 -1 -5 9 3 10 2 17 -3 17 -6 0 -10 6 -10 14 0 14 -19 33 -21 22z m6
-476 c-3 -5 3 -15 14 -22 16 -10 18 -15 8 -28 -6 -8 -7 -11 -2 -7 6 5 14 -6
21 -25 6 -18 16 -32 22 -31 6 2 9 -8 6 -22 -3 -16 2 -27 13 -34 10 -6 14 -11
9 -11 -5 0 -2 -8 5 -17 12 -14 12 -16 -1 -9 -8 4 -7 1 3 -7 10 -8 19 -24 20
-36 1 -12 4 -21 8 -21 6 0 21 -34 23 -55 1 -5 7 -16 13 -23 7 -7 16 -25 19
-40 4 -15 14 -35 22 -45 14 -16 14 -20 2 -28 -12 -9 -11 -10 5 -6 16 3 20 -1
20 -23 0 -22 -4 -27 -25 -26 -14 0 -28 5 -32 11 -5 7 -8 7 -8 -1 0 -14 -150
-13 -150 1 0 5 -4 4 -9 -4 -8 -12 -14 -13 -37 -2 -25 11 -26 11 -14 -4 12 -14
10 -15 -14 -5 -35 13 -39 13 -30 -2 5 -7 3 -8 -7 -2 -21 13 -130 13 -122 0 3
-6 2 -7 -2 -3 -13 11 -15 36 -4 43 5 3 9 14 9 25 0 10 7 19 15 19 9 0 12 6 9
15 -4 8 -1 15 5 15 6 0 8 7 5 15 -4 8 1 17 10 21 9 3 16 10 16 16 0 5 -5 6
-11 3 -6 -4 -5 2 3 14 7 12 16 21 20 21 4 0 5 6 2 14 -3 7 2 16 12 20 14 5 14
9 3 23 -8 9 -9 14 -2 10 7 -5 16 6 23 28 7 22 16 33 23 28 9 -5 9 -3 0 8 -9
11 -8 18 1 31 7 10 16 15 20 11 4 -4 4 0 0 10 -3 10 -1 17 6 17 6 0 9 4 5 9
-3 5 1 16 9 24 10 10 12 17 4 25 -7 7 -4 14 11 22 12 6 19 15 16 21 -6 9 2 29
11 29 3 0 2 -4 -1 -10z"/>
<path d="M7465 1401 c-3 -6 -14 -8 -25 -6 -11 2 -20 -1 -20 -6 0 -6 -8 -5 -21
2 -17 9 -20 8 -14 -2 6 -9 3 -11 -8 -6 -10 3 -17 2 -17 -3 0 -5 -7 -6 -17 -3
-12 5 -14 3 -8 -8 8 -12 6 -12 -8 0 -11 9 -17 10 -17 2 0 -6 -8 -11 -17 -11
-10 0 -27 -7 -37 -15 -16 -12 -22 -12 -28 -2 -6 9 -8 8 -8 -4 0 -10 -11 -20
-25 -23 -14 -4 -24 -10 -21 -14 2 -4 -4 -9 -15 -9 -25 -2 -51 -22 -43 -34 3
-5 -2 -6 -11 -3 -9 4 -15 3 -13 -2 2 -5 0 -10 -5 -11 -4 -2 -18 -14 -31 -28
-13 -13 -27 -21 -31 -17 -5 4 -5 -2 -1 -13 4 -11 4 -17 1 -13 -6 6 -50 -31
-50 -42 0 -3 -10 -16 -23 -30 -12 -13 -20 -30 -18 -37 3 -7 2 -12 -2 -10 -4 1
-8 -2 -9 -6 -1 -5 -10 -15 -20 -24 -10 -8 -13 -12 -6 -9 8 5 8 0 0 -19 -7 -14
-15 -25 -19 -25 -5 0 -8 -9 -8 -19 0 -11 -4 -22 -10 -26 -5 -3 -6 -13 -3 -22
4 -9 2 -14 -3 -10 -6 3 -9 -9 -9 -29 1 -19 -2 -34 -7 -34 -4 0 -6 -14 -4 -30
2 -22 -1 -30 -12 -30 -13 0 -12 -3 4 -16 10 -8 13 -12 5 -8 -11 5 -13 3 -8 -9
3 -10 2 -17 -4 -17 -6 0 -7 -5 -4 -10 4 -6 12 -7 18 -3 7 4 6 0 -2 -10 -7 -9
-11 -23 -8 -32 4 -8 2 -17 -4 -21 -6 -4 -5 -11 3 -21 7 -9 12 -25 10 -36 -2
-12 0 -17 7 -12 14 8 10 -17 -4 -27 -6 -5 -6 -8 1 -8 12 0 28 -54 25 -79 -2
-8 2 -10 10 -5 8 4 10 3 5 -5 -4 -6 0 -18 8 -27 9 -9 14 -20 11 -25 -4 -5 -1
-9 5 -9 6 0 9 -4 6 -9 -3 -5 3 -20 14 -33 11 -14 17 -28 13 -31 -3 -4 2 -9 11
-13 9 -3 16 -14 16 -23 0 -14 2 -14 10 -1 8 12 10 11 10 -7 0 -12 5 -25 12
-29 7 -5 9 -2 4 7 -4 8 -1 5 8 -5 8 -10 13 -23 10 -27 -3 -5 7 -11 21 -15 13
-3 22 -10 19 -15 -3 -5 0 -9 6 -9 7 0 26 -15 43 -32 17 -18 27 -26 22 -18 -5
8 4 5 19 -8 16 -12 32 -19 37 -16 5 3 8 1 7 -4 -2 -6 0 -11 4 -11 5 -1 24 -10
43 -21 20 -11 44 -20 55 -20 11 0 20 -5 20 -11 0 -5 5 -7 10 -4 6 3 10 1 10
-4 0 -6 5 -11 11 -11 5 0 7 6 4 13 -4 6 0 4 8 -6 10 -12 17 -14 22 -8 4 8 13
7 28 -1 29 -16 49 -19 41 -6 -4 7 0 7 12 0 25 -12 154 -13 154 0 0 5 4 6 10 3
5 -3 19 -1 30 5 15 8 20 8 20 -2 0 -9 3 -9 12 0 7 7 20 12 30 12 10 0 18 4 18
9 0 6 9 8 20 6 13 -3 18 0 14 7 -5 7 0 9 14 6 12 -4 20 -2 16 3 -3 5 0 9 7 9
7 0 21 8 32 17 15 13 18 14 12 3 -8 -13 -6 -13 8 -1 9 7 14 18 10 24 -4 6 0 8
11 4 10 -4 19 -1 22 8 4 8 10 15 15 15 6 0 23 13 38 29 16 16 31 28 33 25 3
-2 5 3 5 11 0 8 -4 15 -9 15 -4 0 -8 9 -8 21 0 15 -5 19 -16 15 -12 -5 -14 -1
-9 15 5 15 4 19 -4 15 -6 -4 -11 -2 -11 4 0 6 -5 8 -12 4 -8 -5 -7 0 2 11 8
10 10 16 5 13 -6 -4 -20 7 -30 23 -17 25 -53 52 -42 31 2 -4 -4 -15 -15 -24
-10 -10 -18 -15 -18 -11 0 3 -12 -7 -26 -23 -15 -16 -23 -22 -18 -14 7 13 6
13 -12 0 -10 -8 -22 -19 -26 -24 -3 -5 -15 -10 -26 -11 -11 -1 -27 -7 -36 -14
-9 -8 -16 -10 -16 -5 0 4 -7 -1 -16 -12 -8 -10 -13 -13 -9 -7 3 7 1 13 -4 13
-6 0 -11 -3 -11 -8 0 -4 -12 -8 -27 -9 -93 -7 -123 -8 -123 -2 0 4 -10 7 -22
7 -28 0 -49 5 -65 15 -8 5 -13 3 -13 -5 0 -8 -5 -6 -11 5 -6 9 -14 15 -20 12
-5 -4 -9 -1 -9 4 0 6 -4 10 -9 8 -10 -2 -38 15 -73 45 -11 10 -25 15 -29 12
-5 -3 -9 3 -9 12 0 10 -3 15 -6 11 -10 -9 -32 17 -27 31 3 7 2 12 -3 11 -20
-3 -35 2 -30 10 3 5 -1 12 -10 15 -9 4 -14 13 -10 22 3 8 2 12 -4 9 -6 -3 -10
1 -10 9 0 9 -4 16 -9 16 -5 0 -12 7 -15 16 -4 10 -2 13 7 9 6 -4 5 -1 -3 7 -8
7 -16 20 -18 28 -2 8 -8 18 -14 21 -6 4 -5 9 3 12 11 4 11 6 1 6 -7 1 -10 5
-7 11 3 6 2 10 -3 10 -6 0 -8 8 -5 19 3 10 0 22 -6 25 -7 5 -7 15 -1 31 6 16
6 25 -1 25 -6 0 -6 8 2 21 9 17 8 20 -2 14 -8 -6 -10 -4 -4 5 8 12 11 28 20
90 1 14 4 27 5 30 1 3 2 9 1 14 -1 5 5 6 13 3 12 -5 13 -1 6 19 -7 17 -7 23 0
19 6 -3 10 -1 10 5 0 6 4 9 9 6 4 -3 7 6 5 19 -1 14 2 23 6 20 12 -7 32 30 22
40 -4 5 1 5 10 2 12 -4 15 -2 11 9 -3 9 1 14 12 14 9 0 13 5 10 10 -3 6 1 10
10 10 9 0 14 4 11 9 -6 10 41 44 61 44 7 0 10 3 8 7 -6 9 70 51 79 43 3 -3 6
-1 6 6 0 6 6 11 13 10 28 -3 48 2 42 11 -3 6 1 10 10 10 10 0 14 -5 10 -12 -4
-7 1 -4 9 6 9 11 16 15 16 8 0 -7 8 -9 23 -4 27 9 48 9 64 -1 6 -4 14 -3 18 3
4 6 10 8 14 6 4 -3 20 -7 36 -10 16 -3 32 -11 37 -18 6 -10 8 -10 8 -1 0 7 7
10 15 7 8 -4 12 -11 8 -18 -4 -6 2 -4 12 4 11 9 16 10 11 3 -7 -13 0 -16 37
-16 14 0 15 -2 5 -15 -8 -9 -8 -13 -2 -9 7 4 24 -3 40 -15 16 -13 25 -16 20
-8 -4 8 4 3 18 -12 14 -16 30 -28 36 -28 6 0 9 -4 6 -9 -4 -5 2 -8 11 -7 10 2
18 8 18 15 0 6 5 15 11 19 6 4 13 15 17 25 4 11 12 15 18 11 8 -4 9 -3 5 4 -3
6 3 16 14 22 17 9 19 14 9 26 -10 12 -9 13 7 8 10 -4 16 -4 12 1 -4 4 -2 15 5
23 10 12 9 16 -1 20 -7 2 -24 15 -38 29 -13 13 -29 21 -34 18 -6 -3 -10 4 -10
17 0 16 -3 19 -9 10 -6 -10 -11 -9 -22 4 -12 15 -12 17 0 9 9 -5 12 -4 7 3 -4
6 -14 8 -23 5 -11 -4 -14 -3 -9 5 5 8 2 10 -8 6 -9 -3 -16 -1 -16 6 0 6 -5 8
-12 4 -8 -5 -9 -1 -4 12 6 15 5 16 -5 7 -10 -10 -16 -9 -31 4 -14 12 -18 13
-18 3 0 -10 -3 -9 -12 2 -7 9 -29 19 -48 22 -19 3 -48 9 -65 14 -16 5 -36 7
-42 5 -7 -3 -13 1 -13 8 0 10 -3 10 -12 1 -8 -8 -15 -8 -24 -1 -8 7 -14 7 -19
-1 -4 -7 -12 -7 -25 0 -12 6 -21 6 -25 1z"/>
<path d="M3656 1382 c-3 -5 -17 -8 -31 -7 -14 2 -28 -2 -32 -7 -3 -7 -1 -8 5
-4 14 8 11 -51 -2 -73 -7 -10 -5 -12 3 -6 10 5 11 -2 7 -31 -4 -25 -2 -40 6
-46 9 -5 8 -8 -5 -8 -10 0 -15 -5 -12 -10 4 -6 12 -7 18 -3 7 4 6 0 -2 -10 -7
-9 -10 -17 -5 -17 5 0 2 -5 -6 -10 -10 -6 -11 -10 -3 -10 9 0 11 -12 8 -42 -4
-28 -1 -44 7 -50 10 -5 8 -8 -5 -8 -10 0 -15 -5 -12 -10 4 -6 12 -7 18 -3 7 4
6 0 -2 -10 -7 -9 -10 -17 -5 -17 5 0 2 -5 -6 -10 -8 -5 -10 -10 -3 -10 13 0
12 -68 -2 -89 -5 -9 -4 -12 2 -8 6 4 10 -13 9 -43 0 -32 -3 -47 -10 -43 -6 4
-5 -1 3 -10 11 -14 11 -20 0 -34 -8 -9 -9 -14 -3 -10 7 4 15 0 18 -9 4 -10 2
-13 -6 -8 -8 5 -9 2 -5 -9 4 -10 1 -17 -5 -17 -7 0 -3 -7 8 -16 10 -8 13 -12
5 -8 -11 5 -13 3 -8 -9 3 -10 2 -17 -4 -17 -6 0 -3 -7 5 -16 19 -18 21 -28 4
-18 -8 5 -9 2 -5 -9 4 -10 1 -17 -6 -17 -9 0 -9 -2 0 -8 6 -4 10 -21 8 -37 -1
-17 2 -38 7 -49 7 -12 7 -16 0 -12 -6 3 -13 2 -17 -4 -3 -5 -2 -10 4 -10 5 0
8 -8 6 -17 -1 -10 3 -24 9 -32 8 -11 8 -13 0 -8 -13 8 -27 -17 -16 -28 12 -12
11 -75 -2 -68 -6 4 -6 0 2 -9 7 -8 9 -23 6 -33 -4 -10 -1 -21 7 -26 11 -7 10
-9 -4 -9 -10 0 -15 -5 -12 -10 4 -6 12 -7 18 -3 7 4 6 0 -2 -10 -7 -9 -10 -17
-5 -17 5 0 2 -5 -6 -10 -9 -6 -10 -10 -3 -10 13 0 14 -39 1 -56 -5 -7 -2 -18
7 -28 9 -9 12 -16 6 -16 -6 0 -7 -7 -4 -17 4 -11 3 -14 -6 -9 -10 7 -10 4 0
-12 7 -12 19 -17 31 -14 10 2 26 -2 35 -9 9 -8 14 -9 10 -3 -4 7 0 15 9 18 8
3 13 2 10 -3 -3 -5 1 -12 10 -15 9 -3 12 -2 9 5 -5 7 7 8 35 4 33 -5 40 -3 34
7 -6 10 -5 10 7 2 11 -9 17 -9 27 2 7 8 9 14 3 14 -10 0 -9 25 1 36 4 3 3 17
-3 31 -12 31 -11 36 1 28 8 -5 2 24 -10 45 -2 3 2 15 8 27 8 14 9 24 2 28 -5
3 -10 11 -10 16 0 6 4 7 10 4 6 -4 6 4 -1 22 -6 15 -11 28 -11 28 -1 0 4 10
10 22 8 14 9 24 2 28 -5 3 -10 11 -10 16 0 6 4 7 10 4 6 -4 7 2 2 17 -9 28 -9
49 1 65 5 8 3 13 -4 13 -25 0 0 11 36 15 22 3 44 0 53 -7 9 -8 13 -8 9 -2 -4
7 2 11 18 12 14 0 23 -4 20 -8 -2 -3 2 -7 10 -7 8 0 12 4 9 9 -3 4 4 8 15 8
15 0 19 -5 14 -17 -3 -12 0 -10 11 5 10 12 22 19 29 15 22 -14 158 2 169 20 5
8 8 7 8 -3 0 -13 1 -13 10 0 5 8 15 15 22 16 35 3 39 5 32 16 -5 8 -2 9 9 5
10 -4 17 -1 17 5 0 6 3 9 6 6 3 -4 14 1 23 10 10 9 32 28 50 42 17 14 31 30
31 37 0 7 5 13 11 13 5 0 7 -5 3 -12 -4 -7 -3 -8 4 -4 6 4 8 14 5 23 -4 11 -3
14 5 9 8 -5 12 0 12 14 0 11 6 23 14 26 9 3 12 12 9 21 -4 11 -2 14 5 9 7 -4
13 -1 13 8 3 33 4 37 19 46 11 7 11 10 2 10 -10 0 -10 5 -2 20 8 14 8 20 0 20
-6 0 -8 5 -5 10 4 6 9 8 13 6 10 -6 7 68 -3 84 -6 9 -4 11 4 5 10 -6 11 -3 1
15 -6 12 -9 33 -5 47 4 16 2 22 -5 18 -9 -5 -15 15 -11 38 0 4 -4 7 -10 7 -5
0 -8 4 -5 9 3 5 -1 12 -10 15 -13 5 -14 9 -4 21 10 12 9 15 -5 15 -10 0 -16 3
-12 6 8 9 -36 52 -47 46 -5 -3 -6 0 -2 7 8 12 -3 26 -52 60 -18 12 -30 27 -27
32 4 5 0 6 -8 3 -8 -3 -22 2 -31 11 -8 9 -25 18 -37 20 -12 2 -28 10 -37 17
-12 10 -14 10 -8 1 5 -9 2 -11 -8 -7 -9 3 -16 10 -16 15 0 4 -18 7 -41 6 -22
-2 -43 1 -45 5 -3 5 -10 5 -16 2 -6 -4 -14 0 -19 7 -5 8 -9 9 -9 4 0 -12 -81
-12 -99 -1 -6 4 -11 3 -11 -3 0 -5 -9 -9 -20 -8 -11 1 -20 5 -20 10 0 5 -7 3
-17 -4 -9 -8 -17 -14 -17 -13 -14 12 -46 22 -46 15 0 -5 -9 -9 -20 -8 -11 1
-20 5 -20 10 0 5 -7 3 -17 -4 -9 -8 -19 -12 -22 -11 -32 19 -41 22 -41 12 0
-12 -32 -10 -41 4 -4 4 -9 4 -13 -2z m224 -212 c14 -6 37 -5 52 2 12 6 20 3
27 -9 6 -10 11 -13 11 -7 0 10 62 13 80 4 3 -1 10 -1 15 0 38 8 45 8 45 0 0
-5 9 -7 20 -5 11 2 20 -1 20 -7 0 -6 3 -8 6 -5 11 11 45 -13 37 -26 -4 -7 0
-7 10 2 9 7 17 9 17 4 0 -5 7 -18 15 -29 15 -19 15 -19 9 1 -4 17 -3 16 8 -3
8 -12 17 -19 22 -15 4 4 4 -1 0 -11 -6 -15 -4 -17 6 -11 10 6 12 4 7 -8 -4
-11 -1 -17 8 -17 7 0 14 -9 14 -20 1 -11 1 -29 2 -40 0 -11 4 -18 9 -15 5 3 5
-9 0 -26 -5 -18 -7 -35 -5 -40 3 -4 -2 -15 -11 -23 -12 -12 -12 -16 -2 -17 10
0 10 -2 0 -6 -6 -2 -9 -10 -5 -16 4 -7 0 -8 -11 -4 -9 4 -15 3 -12 -2 3 -5 -6
-23 -21 -40 -27 -31 -51 -43 -37 -18 4 7 3 9 -2 4 -5 -5 -9 -14 -9 -20 0 -7
-9 -11 -19 -9 -12 2 -16 -1 -10 -9 5 -9 2 -10 -9 -6 -9 3 -19 2 -22 -4 -4 -5
-11 -7 -16 -3 -5 3 -16 0 -24 -6 -8 -7 -15 -9 -15 -5 0 4 -6 2 -14 -4 -11 -9
-16 -9 -22 0 -5 8 -3 9 6 4 9 -5 11 -4 6 4 -5 8 -12 9 -19 3 -7 -5 -40 -9 -74
-8 -35 1 -63 -1 -63 -5 0 -4 -9 -5 -20 -2 -11 3 -17 10 -13 17 3 6 -2 3 -13
-6 -13 -12 -24 -14 -34 -8 -8 5 -11 10 -6 10 5 0 3 7 -4 15 -10 12 -10 15 1
15 9 0 10 3 4 8 -12 8 -13 52 -2 70 5 6 4 12 0 12 -5 0 -9 9 -10 20 -1 11 2
18 8 15 5 -4 6 3 0 17 -11 31 -11 41 1 56 6 6 6 12 1 12 -5 0 -9 9 -10 20 -1
11 2 18 8 15 5 -4 6 3 0 17 -11 29 -11 39 0 60 6 10 5 19 -1 23 -5 3 -10 11
-10 16 0 6 4 7 10 4 7 -4 7 3 0 20 -8 20 -7 27 5 31 8 4 13 9 10 13 -3 7 30 7
45 1z m190 6 c0 -3 -4 -8 -10 -11 -5 -3 -10 -1 -10 4 0 6 5 11 10 11 6 0 10
-2 10 -4z"/>
<path d="M5575 1380 c3 -6 2 -10 -3 -10 -14 0 -22 -38 -8 -44 7 -3 7 -5 -2 -5
-10 -1 -10 -6 -1 -22 8 -15 8 -19 0 -15 -13 9 -14 4 -1 -28 5 -14 5 -28 1 -31
-10 -6 -9 -24 2 -42 5 -7 4 -13 0 -13 -5 0 -9 -9 -9 -20 0 -11 4 -20 8 -20 4
0 8 -5 8 -11 0 -5 -4 -8 -8 -5 -4 2 -8 -4 -8 -15 0 -10 4 -19 9 -19 6 0 6 -5
0 -12 -11 -15 -11 -28 0 -45 5 -7 4 -13 0 -13 -5 0 -9 -9 -9 -20 0 -11 4 -20
8 -20 4 0 8 -5 8 -11 0 -5 -3 -8 -7 -6 -5 3 -8 -15 -8 -39 0 -24 3 -44 7 -44
4 0 5 -6 3 -12 -10 -30 -13 -68 -5 -68 6 0 6 -10 0 -25 -6 -15 -6 -26 0 -30 7
-4 6 -13 0 -25 -7 -13 -6 -20 3 -23 9 -3 9 -8 1 -18 -12 -16 -12 -29 -1 -46 5
-7 4 -13 0 -13 -5 0 -9 -9 -9 -20 0 -11 4 -20 8 -20 4 0 8 -5 8 -11 0 -5 -4
-8 -8 -5 -9 6 -9 -50 0 -60 4 -4 3 -15 -3 -25 -7 -13 -6 -19 1 -19 6 0 8 -4 5
-10 -11 -18 -14 -50 -5 -50 5 0 7 -6 5 -12 -10 -30 -13 -68 -5 -68 5 0 7 -6 5
-13 -10 -29 -13 -67 -5 -67 5 0 7 -6 5 -13 -11 -30 -13 -67 -4 -67 6 0 6 -7
-1 -19 -7 -13 -7 -22 0 -26 7 -4 7 -12 0 -25 -7 -13 -7 -21 0 -25 6 -4 8 -10
5 -15 -3 -4 3 -14 12 -21 11 -9 14 -10 10 -2 -6 9 2 12 28 11 20 -1 38 -5 41
-10 3 -5 11 -5 17 0 17 12 59 13 51 0 -4 -5 5 -3 18 6 14 9 29 13 33 9 5 -5 3
0 -4 10 -12 15 -11 17 5 17 17 0 17 1 -2 15 -19 14 -19 14 0 15 20 0 20 0 0
15 -12 9 -14 14 -6 15 7 0 10 5 7 10 -4 6 -11 7 -17 4 -7 -4 -8 -2 -4 4 4 7
14 12 22 12 8 0 12 5 9 10 -4 6 -11 8 -16 5 -5 -4 -5 4 1 19 5 15 6 28 0 31
-6 3 -6 15 0 30 7 19 5 28 -8 42 -16 16 -16 17 1 10 20 -7 23 3 5 21 -9 9 -8
12 7 12 18 0 18 0 -1 15 -13 10 -14 14 -5 15 11 0 11 3 1 15 -10 12 -9 15 4
15 10 0 14 5 11 10 -4 6 -11 8 -16 5 -5 -4 -6 3 -1 17 10 28 8 90 -3 108 -5 9
-4 11 3 6 17 -10 15 5 -4 25 -15 16 -14 17 8 12 23 -5 23 -5 3 10 -13 11 -15
16 -6 17 11 0 11 3 1 15 -10 12 -9 15 4 15 10 0 14 5 11 10 -4 6 -11 8 -16 5
-5 -4 -6 3 -1 17 9 26 8 199 -2 223 -3 9 -2 13 4 10 6 -3 10 -1 10 4 0 6 -6
11 -12 11 -10 0 -9 3 1 9 9 6 10 11 2 15 -6 4 -7 15 -2 29 6 14 5 30 -1 41 -8
14 -7 17 1 12 6 -4 11 -3 11 3 0 5 -8 15 -17 20 -16 9 -15 10 6 11 24 0 24 0
5 15 -13 10 -14 14 -5 15 11 0 11 3 1 15 -10 12 -9 15 4 15 10 0 14 5 11 10
-4 6 -11 8 -16 5 -5 -4 -6 3 -1 17 7 19 8 93 2 93 -1 0 -3 10 -4 22 -1 12 2
19 7 16 5 -3 7 0 5 8 -3 8 -12 13 -19 11 -9 -1 -8 2 3 11 14 11 15 16 5 27 -9
10 -9 11 1 6 15 -9 16 10 1 20 -8 4 -7 9 2 15 9 6 0 7 -23 4 -23 -2 -38 0 -38
7 0 7 -4 7 -12 0 -16 -13 -28 -13 -50 -1 -10 6 -18 5 -20 -2 -2 -7 -12 -7 -31
0 -18 7 -26 7 -22 1z"/>
<path d="M9029 1378 c-1 -7 -1 -16 0 -20 0 -5 -3 -8 -8 -8 -6 0 -9 -9 -8 -20
1 -11 5 -20 10 -20 4 0 5 -6 1 -12 -10 -16 -11 -149 -1 -155 4 -2 4 -10 0 -16
-11 -19 -12 -57 -1 -57 7 0 7 -5 1 -12 -10 -15 -10 -119 1 -137 4 -6 3 -11 -3
-11 -5 0 -9 -9 -8 -20 1 -11 5 -20 10 -20 5 0 4 -7 -3 -15 -10 -12 -10 -15 1
-15 9 0 10 -3 3 -8 -13 -9 -14 -42 -1 -42 5 0 4 -7 -3 -15 -10 -12 -10 -15 1
-15 9 0 10 -3 3 -8 -13 -9 -14 -42 -1 -42 5 0 4 -7 -3 -15 -10 -12 -10 -15 1
-15 9 0 10 -3 3 -8 -13 -9 -14 -42 -1 -42 5 0 4 -7 -3 -15 -10 -12 -10 -15 1
-15 9 0 10 -3 3 -8 -13 -9 -14 -42 -1 -42 5 0 4 -7 -3 -15 -10 -12 -10 -15 1
-15 9 0 10 -3 3 -8 -13 -9 -14 -42 -1 -42 5 0 4 -7 -3 -15 -10 -12 -10 -15 1
-15 9 0 10 -3 3 -8 -13 -9 -14 -42 -1 -42 5 0 4 -7 -3 -15 -10 -12 -10 -15 1
-15 9 0 10 -3 3 -8 -13 -9 -14 -42 -1 -42 5 0 4 -7 -3 -15 -10 -12 -10 -15 1
-15 9 0 10 -3 3 -8 -13 -9 -14 -42 -1 -42 5 0 4 -7 -3 -15 -10 -12 -10 -15 1
-15 9 0 10 -3 3 -8 -13 -9 -14 -42 -1 -42 5 0 4 -7 -3 -15 -10 -12 -10 -15 1
-15 9 0 10 -3 3 -8 -13 -9 -14 -42 -1 -42 5 0 4 -7 -3 -15 -19 -23 1 -40 29
-26 17 10 20 9 14 -5 -5 -15 -3 -15 21 1 25 17 26 17 20 -1 -6 -16 -5 -17 7
-7 17 17 43 17 33 1 -5 -9 -2 -9 9 1 9 7 17 10 17 5 0 -5 5 -2 10 6 6 9 10 10
10 3 0 -6 9 -10 20 -8 11 2 20 -1 20 -7 0 -7 6 -4 13 7 11 14 16 15 22 5 6 -9
4 -11 -5 -5 -9 6 -11 4 -5 -4 5 -9 11 -9 17 -3 6 6 17 8 26 5 11 -5 13 -3 7 8
-7 10 -2 9 17 -3 16 -10 29 -14 33 -8 3 5 13 6 22 3 12 -5 14 -3 8 8 -7 10 -2
9 17 -3 16 -10 29 -14 33 -8 3 5 13 6 22 3 12 -5 14 -3 8 8 -7 10 -2 9 17 -3
16 -10 29 -14 33 -8 3 5 13 6 22 3 12 -5 14 -3 8 8 -7 11 -3 10 15 -2 23 -15
28 -15 48 -1 21 13 22 13 16 -3 -7 -17 -6 -17 20 0 25 17 26 17 19 -1 -6 -18
-6 -18 14 -1 16 14 23 15 29 6 5 -8 3 -10 -6 -4 -9 5 -11 4 -6 -4 6 -9 11 -9
22 0 8 6 14 8 14 3 0 -5 5 -2 10 6 6 10 10 11 10 3 0 -7 9 -13 21 -13 12 0 17
4 13 11 -4 7 1 7 16 -1 12 -6 24 -9 28 -6 3 3 0 6 -8 6 -10 0 -10 3 0 15 9 11
10 18 1 28 -6 8 -8 17 -4 21 12 11 11 56 -1 56 -7 0 -7 3 -1 8 6 4 11 21 11
37 2 35 -32 59 -59 43 -10 -5 -18 -4 -22 2 -5 8 -12 7 -22 -2 -19 -15 -23 -15
-34 4 -7 10 -9 10 -9 0 0 -10 -5 -10 -21 -1 -12 6 -19 7 -16 2 3 -5 -12 -9
-34 -9 -21 1 -39 5 -39 10 0 5 -7 3 -16 -5 -13 -10 -17 -10 -25 2 -6 9 -12 10
-16 4 -7 -10 -29 -12 -43 -6 -13 6 -50 7 -50 1 0 -3 -11 -6 -25 -6 -14 0 -25
4 -25 9 0 4 -6 5 -12 0 -19 -11 -37 -12 -43 -2 -3 4 -16 4 -29 -1 -16 -6 -28
-5 -36 3 -10 9 -11 9 -5 -3 5 -10 5 -12 -2 -5 -14 13 -28 59 -17 52 5 -3 9 15
9 39 0 24 -4 44 -9 44 -6 0 -1 6 10 14 18 14 18 15 2 21 -10 4 -18 11 -18 17
0 5 6 6 13 3 6 -4 3 1 -7 9 -14 12 -16 16 -5 16 9 0 14 11 14 34 0 19 -3 32
-7 30 -15 -10 -8 9 10 23 9 8 12 12 5 9 -6 -4 -14 -2 -18 4 -3 5 0 10 7 10 8
1 6 6 -6 15 -17 13 -18 15 -3 15 9 0 17 6 17 13 0 7 14 12 35 12 19 0 35 -3
35 -6 0 -4 14 -4 31 1 27 8 30 7 25 -8 -6 -15 -5 -15 8 1 7 9 19 17 27 17 11
0 11 -2 -1 -10 -9 -6 -10 -10 -3 -10 6 0 15 5 19 11 4 8 9 7 14 -2 7 -10 11
-10 24 0 10 8 16 9 16 3 0 -7 10 -8 29 -2 21 6 31 5 35 -3 3 -9 5 -8 5 1 1 6
9 12 19 12 14 0 15 -2 2 -10 -9 -6 -10 -10 -3 -10 6 0 15 5 19 11 4 8 9 7 15
-2 7 -12 9 -12 9 0 0 11 5 10 20 -4 20 -18 21 -18 14 1 -7 17 -6 18 11 4 11
-9 16 -10 11 -2 -9 15 -1 15 26 1 15 -8 19 -8 14 0 -11 18 5 13 21 -6 8 -10
12 -13 9 -6 -4 6 2 16 11 22 10 6 13 11 7 11 -12 0 -15 30 -3 30 9 0 7 20 -4
37 -4 6 -3 14 2 18 7 3 7 15 1 30 -5 14 -5 27 -1 30 11 6 2 45 -10 46 -32 4
-56 2 -67 -5 -6 -4 -12 -3 -12 1 0 10 -127 9 -137 -1 -3 -3 -12 -1 -20 5 -10
9 -17 8 -28 -1 -8 -7 -15 -8 -15 -3 0 5 -9 9 -20 10 -11 1 -18 -2 -16 -6 3 -4
-1 -8 -9 -8 -8 0 -15 3 -15 6 0 9 -113 6 -128 -3 -7 -4 -12 -2 -12 4 0 7 -7 9
-17 5 -14 -5 -15 -4 -6 6 10 10 9 17 -5 33 -9 11 -11 16 -4 12 6 -4 12 -2 12
4 0 6 5 8 13 4 7 -5 7 -1 -2 10 -14 17 -19 91 -7 103 3 3 1 12 -5 20 -9 10 -7
13 7 13 19 1 19 1 0 11 -15 9 -16 13 -5 20 12 7 11 9 -1 9 -13 0 -13 1 0 10
10 6 11 10 3 10 -7 0 -13 5 -13 11 0 5 6 7 13 4 6 -4 3 1 -7 9 -19 16 -19 16
5 16 17 0 20 3 10 9 -17 11 -4 34 15 27 8 -3 14 0 14 7 0 8 4 6 10 -3 8 -12
10 -12 10 -1 0 11 3 11 15 1 11 -9 15 -9 15 -1 0 8 5 9 16 3 9 -5 26 -7 37 -4
15 4 18 2 12 -9 -7 -11 -6 -12 7 -2 8 7 18 10 21 6 4 -3 7 0 7 8 0 11 2 11 10
-1 6 -9 10 -11 10 -3 0 7 7 10 15 7 8 -4 12 -11 8 -18 -4 -6 1 -5 10 2 9 8 21
11 27 7 5 -3 10 0 10 7 1 8 6 6 15 -6 8 -11 15 -15 15 -9 0 6 15 11 33 11 17
1 46 2 64 4 19 3 29 0 26 -6 -4 -5 1 -7 12 -2 11 4 22 2 27 -6 5 -9 8 -7 8 7
0 17 2 17 10 5 7 -11 10 -11 10 -2 0 8 5 10 13 5 18 -11 37 -12 37 -2 0 6 9 5
22 -2 18 -9 20 -9 15 4 -3 8 -3 18 0 21 11 11 12 56 2 56 -6 0 -7 5 -3 12 8
13 12 107 4 109 -3 1 -23 3 -46 4 -23 1 -46 5 -53 9 -6 4 -11 3 -11 -3 0 -5
-9 -9 -20 -8 -11 1 -20 5 -20 10 0 5 -7 3 -17 -4 -9 -8 -19 -12 -22 -11 -31
19 -41 22 -41 13 0 -5 -9 -9 -20 -8 -11 1 -20 5 -20 10 0 5 -6 5 -12 -1 -16
-13 -28 -13 -50 -1 -12 6 -18 6 -18 0 0 -5 -9 -9 -20 -8 -11 1 -20 5 -20 10 0
4 -6 5 -12 0 -18 -11 -30 -11 -50 -1 -11 5 -18 5 -18 -1 0 -5 -9 -9 -20 -8
-11 1 -20 5 -20 10 0 5 -7 4 -15 -3 -12 -10 -15 -10 -15 1 0 9 -3 10 -8 3 -9
-13 -42 -14 -42 -1 0 5 -7 3 -17 -4 -9 -8 -19 -12 -22 -11 -31 19 -41 22 -41
13 0 -5 -9 -9 -20 -8 -11 1 -20 5 -20 10 0 5 -7 3 -17 -4 -9 -8 -19 -12 -22
-11 -34 20 -41 22 -42 10z"/>
</g>
</svg>
